<?xml version="1.0" encoding="utf-8"?>
<!-- Generator: Adobe Illustrator 16.0.4, SVG Export Plug-In . SVG Version: 6.00 Build 0)  -->
<!DOCTYPE svg PUBLIC "-//W3C//DTD SVG 1.1//EN" "http://www.w3.org/Graphics/SVG/1.1/DTD/svg11.dtd">
<svg version="1.1" id="Layer_1" xmlns="http://www.w3.org/2000/svg" xmlns:xlink="http://www.w3.org/1999/xlink" x="0px" y="0px"
	 width="1024px" height="768.25px" viewBox="0 0 1024.5 768.25" enable-background="new 0 0 1024.5 768.25" xml:space="preserve">
<path fill="#FFFFFF" stroke="#000000" stroke-width="12" stroke-miterlimit="10" d="M238.003,2014.171
	c-120.126,0-217.51-129.52-217.51-289.3V300.588c0-159.789,97.384-289.313,217.51-289.313h557.95
	c120.119,0,217.506,129.524,217.506,289.313v1424.283c0,159.782-97.387,289.3-217.506,289.3H238.003z"/>
<g opacity="0.4">
	<path fill="#E2001A" stroke="#E2001A" stroke-width="5.2485" d="M512.174,1011.678c0-4.612,3.741-8.354,8.357-8.354
		c4.614,0,8.35,3.741,8.35,8.354c0,4.616-3.735,8.355-8.35,8.355C515.915,1020.033,512.174,1016.294,512.174,1011.678z"/>
	<path fill="#E2001A" stroke="#E2001A" stroke-width="5.2485" d="M452.2,1866.389c0,2.897,0.251,4.702,0.254,4.766l1.486-0.099
		c-0.043-0.258-3.533-25.717,16.59-40.605c9.655-7.144,23.229-10.765,40.333-10.759c18.271,0.009,32.838,3.826,43.295,11.347
		c20.775,14.966,18.432,39.774,18.394,40.03l1.494,0.076c0.032-0.26,2.426-25.498-18.789-40.795
		c-10.759-7.735-25.682-11.661-44.391-11.661c-17.541-0.009-31.503,3.727-41.444,11.099
		C454.203,1841.047,452.2,1858.139,452.2,1866.389L452.2,1866.389z"/>
	<line fill="none" stroke="#E2001A" stroke-width="5.2315" x1="979.592" y1="1873.264" x2="57.684" y2="1872.869"/>
	<line fill="none" stroke="#E2001A" stroke-width="5.2206" x1="979.592" y1="153.054" x2="57.684" y2="152.645"/>
	<line fill="none" stroke="#E2001B" stroke-width="10.4373" x1="1008.009" y1="1011.68" x2="26.894" y2="1011.68"/>
	<line fill="none" stroke="#2C4291" stroke-width="10.4373" x1="1008.009" y1="757.925" x2="26.894" y2="757.925"/>
	<line fill="none" stroke="#2C4291" stroke-width="10.4373" x1="1008.009" y1="1252.495" x2="26.894" y2="1252.495"/>
	<ellipse fill="none" stroke="#E2002C" stroke-width="5.2485" cx="519.48" cy="1011.963" rx="146.197" ry="147.653"/>
	<path fill="none" stroke="#E2002C" stroke-width="5.2485" d="M745.955,496.174c-80.757,0-146.202-66.111-146.202-147.659
		c0-81.539,65.445-147.644,146.202-147.644c80.734,0,146.19,66.104,146.19,147.644C892.146,430.062,826.689,496.174,745.955,496.174
		z"/>
	<path fill="none" stroke="#E2002C" stroke-width="5.2485" d="M745.955,1818.688c-80.757,0-146.202-66.108-146.202-147.675
		c0-81.53,65.445-147.647,146.202-147.647c80.734,0,146.19,66.117,146.19,147.647
		C892.146,1752.581,826.689,1818.688,745.955,1818.688z"/>
	<path fill="none" stroke="#E2002C" stroke-width="5.2485" d="M280.587,491.621c-80.752,0-146.216-66.122-146.216-147.665
		c0-81.553,65.467-147.657,146.216-147.657c80.731,0,146.192,66.104,146.192,147.657
		C426.779,425.499,361.318,491.621,280.587,491.621z"/>
	<path fill="none" stroke="#E2002C" stroke-width="5.2485" d="M280.587,1818.398c-80.752,0-146.216-66.107-146.216-147.656
		s65.467-147.654,146.216-147.654c80.731,0,146.192,66.104,146.192,147.654C426.779,1752.291,361.318,1818.398,280.587,1818.398z"/>
	<path fill="#E2001A" stroke="#E2001A" stroke-width="5.2485" d="M750.014,356.874c-4.613,0-8.355-3.748-8.355-8.359
		c0-4.612,3.736-8.356,8.355-8.356c4.61,0,8.347,3.741,8.347,8.356C758.357,353.129,754.618,356.874,750.014,356.874z"/>
	<path fill="#E2001A" stroke="#E2001A" stroke-width="5.2485" d="M284.646,352.307c-4.618,0-8.358-3.742-8.358-8.359
		c0-4.608,3.736-8.357,8.358-8.357c4.608,0,8.358,3.747,8.358,8.357C293.001,348.564,289.255,352.307,284.646,352.307z"/>
	<path fill="#E2001A" stroke="#E2001A" stroke-width="5.2485" d="M745.955,1679.385c-4.616,0-8.358-3.751-8.358-8.365
		c0-4.611,3.742-8.354,8.358-8.354c4.61,0,8.348,3.74,8.348,8.354C754.303,1675.64,750.561,1679.385,745.955,1679.385z"/>
	<path fill="#E2001A" stroke="#E2001A" stroke-width="5.2485" d="M284.646,1683.659c-4.618,0-8.358-3.747-8.358-8.359
		c0-4.614,3.736-8.354,8.358-8.354c4.608,0,8.358,3.74,8.358,8.354C293.001,1679.912,289.255,1683.659,284.646,1683.659z"/>
	<path fill="#E2001A" stroke="#E2001A" stroke-width="5.2485" d="M750.014,820.882c-4.613,0-8.355-3.742-8.355-8.354
		c0-4.61,3.736-8.359,8.355-8.359c4.61,0,8.357,3.752,8.357,8.359C758.371,817.138,754.618,820.882,750.014,820.882z"/>
	<path fill="#E2001A" stroke="#E2001A" stroke-width="5.2485" d="M750.014,1214.7c-4.613,0-8.355-3.746-8.355-8.359
		c0-4.605,3.736-8.35,8.355-8.35c4.61,0,8.347,3.744,8.347,8.35C758.357,1210.954,754.618,1214.7,750.014,1214.7z"/>
	<circle fill="#E2001A" stroke="#E2001A" stroke-width="5.2485" cx="288.924" cy="812.331" r="8.358"/>
	<path fill="#E2001A" stroke="#E2001A" stroke-width="5.2485" d="M284.646,1214.7c-4.618,0-8.358-3.746-8.358-8.359
		c0-4.605,3.736-8.35,8.358-8.35c4.608,0,8.358,3.744,8.358,8.35C293.001,1210.954,289.26,1214.7,284.646,1214.7z"/>
	<path fill="#E2001A" stroke="#E2001A" stroke-width="5.2485" d="M452.2,157.826c0-2.898,0.251-4.713,0.254-4.772l1.486,0.1
		c-0.043,0.252-3.533,25.716,16.59,40.605c9.655,7.141,23.229,10.769,40.333,10.759c18.271-0.004,32.838-3.825,43.295-11.348
		c20.775-14.958,18.432-39.777,18.394-40.031l1.494-0.076c0.032,0.258,2.426,25.501-18.789,40.795
		c-10.759,7.736-25.682,11.666-44.391,11.666c-17.541,0.004-31.503-3.726-41.444-11.1C454.203,183.168,452.2,166.075,452.2,157.826
		L452.2,157.826z"/>
</g>
<g id="Layer_2_1_" opacity="0.2">
	<path fill="#006241" d="M374.527,1959.521c0,4.013,3.266,7.28,7.274,7.28h216.683c5.553,0,11.06,1.306,15.992,3.836
		c4.213,2.15,8.978,3.368,14.027,3.368c17.049,0.002,30.923-13.869,30.923-30.923c0-17.049-13.87-30.919-30.923-30.919
		c-4.854,0-9.454,1.131-13.542,3.134c-4.839,2.374-10.078,3.57-15.466,3.57H381.808c-4.008,0-7.274,3.27-7.274,7.279
		L374.527,1959.521L374.527,1959.521z"/>
	<path fill="#FFB819" d="M610.155,1960.053l0.124,0.599c0.057,0.202,0.139,0.406,0.208,0.604c0.139,0.404,0.374,0.774,0.585,1.152
		c0.247,0.338,0.498,0.707,0.788,0.984l0.449,0.425c0.151,0.129,0.31,0.245,0.472,0.362c0.316,0.246,0.637,0.415,0.958,0.604
		c1.297,0.69,2.569,1.008,3.799,1.196c1.226,0.178,2.411,0.224,3.565,0.184c2.316-0.092,4.529-0.459,6.639-1.012
		c1.053-0.273,2.085-0.585,3.086-0.951c0.996-0.35,1.972-0.736,2.905-1.168c3.747-1.682,6.96-3.877,9.321-6.227
		c0.466-0.458,0.883-0.93,1.275-1.397c3.677-3.585,5.959-8.572,5.959-14.1c0-10.869-8.839-19.711-19.705-19.711
		s-19.706,8.845-19.706,19.711c0,3.568,0.963,6.906,2.624,9.79c-0.009,0.014-0.023,0.027-0.038,0.046
		c-1.198,1.503-2.445,3.198-3.139,5.666c-0.075,0.325-0.151,0.644-0.203,0.983c-0.038,0.358-0.087,0.705-0.07,1.084
		C610.065,1959.27,610.061,1959.64,610.155,1960.053z M630.582,1927.213c7.775,0,14.1,6.326,14.1,14.097
		c0,5.975-3.736,11.08-8.991,13.128c-0.904,0.258-1.787,0.402-2.563,0.34c-0.769-0.034-1.425-0.252-2.038-0.614
		c-0.071-0.051-0.152-0.085-0.233-0.141l-0.208-0.18l-0.233-0.167l-0.208-0.214c-0.295-0.262-0.53-0.629-0.802-0.964
		c-0.13-0.192-0.243-0.38-0.363-0.57c-0.122-0.185-0.202-0.413-0.321-0.609c-0.236-0.398-0.385-0.856-0.58-1.28
		c-0.347-0.883-0.631-1.777-0.858-2.634c-0.151-0.423-0.219-0.848-0.321-1.248c-0.111-0.403-0.221-0.784-0.288-1.159
		c-0.151-0.736-0.335-1.392-0.436-1.937c-0.104-0.55-0.227-0.985-0.289-1.282c-0.07-0.3-0.127-0.463-0.127-0.463
		s-0.073,0.148-0.195,0.434c-0.119,0.279-0.314,0.693-0.515,1.234c-0.217,0.538-0.387,1.206-0.606,1.985
		c-0.125,0.385-0.17,0.807-0.263,1.252c-0.079,0.452-0.165,0.924-0.203,1.43c-0.043,0.506-0.095,1.03-0.089,1.587
		c0.013,0.555,0,1.13,0.076,1.741c0.069,0.603,0.146,1.229,0.327,1.874c0.081,0.425,0.222,0.849,0.384,1.274
		c-2.128-0.976-3.969-2.464-5.371-4.312c0.057-0.085,0.124-0.181,0.181-0.26c0.889-1.235,1.744-2.36,2.502-3.354
		c0.785-0.996,1.46-1.869,2.02-2.584c0.559-0.729,1.003-1.301,1.3-1.688c0.301-0.4,0.455-0.614,0.455-0.614
		s-0.232,0.136-0.664,0.372c-0.422,0.252-1.071,0.589-1.846,1.097c-0.785,0.484-1.72,1.105-2.771,1.864
		c-0.89,0.648-1.87,1.41-2.885,2.276c-0.75-1.72-1.168-3.611-1.168-5.609C616.484,1933.539,622.814,1927.213,630.582,1927.213z
		 M624.82,1960.162c-1.304,0.213-2.615,0.364-3.896,0.396c-0.912,0.04-1.8,0.018-2.618-0.093c-0.807-0.113-1.565-0.274-2.074-0.526
		c-0.113-0.067-0.265-0.116-0.347-0.186l-0.149-0.092c-0.031-0.03-0.064-0.061-0.103-0.089c-0.089-0.053-0.107-0.114-0.184-0.157
		c-0.021-0.066-0.101-0.103-0.119-0.173c-0.144-0.235-0.238-0.705-0.149-1.365c0.145-0.945,0.555-2.013,1.076-3.062
		C618.577,1957.275,621.507,1959.15,624.82,1960.162z"/>
	<g>
		<path fill="#FCB61A" d="M591.295,1942.094c0.498-1.831,1.031-3.651,1.587-5.462c0.56-1.806,1.158-3.624,1.776-5.461h4.32
			c0.455,1.013,0.939,2.222,1.467,3.62c0.518,1.394,1.064,2.922,1.623,4.572c0.557,1.649,1.137,3.397,1.719,5.238
			c0.596,1.848,1.152,3.704,1.705,5.592h-5.858c-0.195-0.867-0.42-1.816-0.66-2.834c-0.239-1.028-0.485-2.083-0.75-3.17
			c-0.263-1.084-0.536-2.174-0.826-3.271c-0.284-1.098-0.58-2.156-0.88-3.164c-0.322,1.061-0.639,2.147-0.953,3.257
			c-0.303,1.106-0.609,2.198-0.894,3.27c-0.29,1.07-0.56,2.107-0.82,3.107c-0.263,1.003-0.489,1.938-0.693,2.804h-4.025
			c-0.2-0.865-0.425-1.802-0.671-2.804c-0.252-0.995-0.513-2.037-0.783-3.107c-0.271-1.071-0.561-2.165-0.86-3.27
			c-0.299-1.109-0.607-2.192-0.935-3.257c-0.298,1.011-0.599,2.066-0.901,3.164c-0.301,1.098-0.58,2.182-0.843,3.271
			c-0.265,1.082-0.517,2.142-0.757,3.17c-0.239,1.018-0.458,1.967-0.655,2.834h-5.781c0.547-1.883,1.118-3.744,1.7-5.592
			c0.585-1.841,1.165-3.591,1.725-5.238c0.555-1.65,1.11-3.179,1.646-4.572c0.54-1.4,1.032-2.607,1.474-3.62h4.326
			c0.626,1.835,1.234,3.655,1.833,5.461C590.25,1938.442,590.803,1940.263,591.295,1942.094"/>
		<polygon fill="#FCB61A" points="568.446,1931.171 574.003,1931.171 574.003,1949.218 568.446,1950.193 		"/>
		<path fill="#FCB61A" d="M563.225,1949.54c-0.944,0.264-2.161,0.514-3.655,0.743c-1.486,0.23-3.06,0.344-4.699,0.344
			c-1.673,0-3.055-0.213-4.164-0.634c-1.102-0.423-1.982-1.018-2.632-1.787c-0.649-0.773-1.102-1.685-1.379-2.746
			c-0.273-1.062-0.41-2.241-0.41-3.547v-10.739h5.558v10.085c0,1.738,0.238,2.967,0.709,3.688c0.475,0.725,1.356,1.084,2.648,1.084
			c0.403,0,0.822-0.019,1.272-0.051c0.447-0.039,0.847-0.082,1.193-0.127v-14.68h5.553L563.225,1949.54L563.225,1949.54z"/>
		<path fill="#FCB61A" d="M541.251,1949.54c-0.944,0.264-2.166,0.514-3.654,0.743c-1.486,0.23-3.061,0.344-4.702,0.344
			c-1.671,0-3.053-0.213-4.16-0.634c-1.106-0.423-1.984-1.018-2.63-1.787c-0.651-0.773-1.105-1.685-1.382-2.746
			c-0.266-1.062-0.409-2.241-0.409-3.547v-10.739h5.556v10.085c0,1.738,0.238,2.967,0.707,3.688c0.477,0.725,1.37,1.084,2.656,1.084
			c0.397,0,0.814-0.019,1.267-0.051c0.447-0.039,0.845-0.082,1.188-0.127v-14.68h5.559L541.251,1949.54L541.251,1949.54z"/>
		<path fill="#FCB61A" d="M520.218,1940.533c0,1.689-0.271,3.167-0.805,4.43c-0.538,1.269-1.236,2.324-2.111,3.166
			c-0.864,0.841-1.868,1.483-2.997,1.915c-1.135,0.431-2.296,0.652-3.49,0.652c-2.785,0-4.981-0.829-6.6-2.48
			c-1.62-1.649-2.424-4.081-2.424-7.283c0-0.313,0.008-0.658,0.03-1.034c0.032-0.375,0.054-0.699,0.078-0.993h12.608
			c-0.125-1.107-0.661-1.985-1.6-2.642c-0.948-0.649-2.21-0.974-3.804-0.974c-1.027,0-2.021,0.093-3.003,0.272
			c-0.978,0.179-1.782,0.398-2.402,0.67l-0.744-4.379c0.293-0.146,0.688-0.289,1.186-0.432c0.499-0.146,1.057-0.268,1.668-0.383
			c0.604-0.111,1.262-0.196,1.958-0.266c0.695-0.072,1.389-0.106,2.084-0.106c1.769,0,3.295,0.252,4.608,0.755
			c1.302,0.508,2.386,1.201,3.243,2.079c0.864,0.879,1.495,1.923,1.906,3.125C520.012,1937.844,520.218,1939.142,520.218,1940.533
			 M507.154,1942.599c0.027,0.455,0.108,0.903,0.246,1.337c0.136,0.435,0.35,0.824,0.632,1.16c0.287,0.337,0.651,0.613,1.085,0.836
			c0.436,0.216,0.97,0.323,1.619,0.323c0.623,0,1.156-0.102,1.603-0.309c0.447-0.202,0.82-0.476,1.118-0.81
			c0.295-0.34,0.528-0.729,0.69-1.175c0.16-0.448,0.276-0.898,0.355-1.358L507.154,1942.599L507.154,1942.599z"/>
		<path fill="#FCB61A" d="M485.668,1945.414c0.504,0.123,1.081,0.252,1.758,0.385c0.672,0.133,1.392,0.194,2.166,0.194
			c0.349,0,0.761-0.028,1.248-0.09c0.489-0.058,0.858-0.124,1.1-0.2v-14.532h5.566v18.007c-0.997,0.336-2.175,0.658-3.531,0.956
			c-1.361,0.304-2.87,0.454-4.532,0.454c-0.3,0-0.654-0.021-1.076-0.051c-0.432-0.04-0.854-0.085-1.271-0.15
			c-0.423-0.059-0.85-0.135-1.268-0.22c-0.428-0.08-0.779-0.184-1.076-0.303L485.668,1945.414z"/>
		<path fill="#FCB61A" d="M481.751,1931.174v24.26l-5.559,0.868v-6.187c-0.374,0.123-0.855,0.236-1.439,0.347
			c-0.586,0.104-1.151,0.161-1.696,0.161c-1.589,0-2.911-0.215-3.974-0.633c-1.058-0.426-1.9-1.021-2.536-1.789
			c-0.633-0.774-1.085-1.686-1.341-2.75c-0.263-1.062-0.396-2.24-0.396-3.546v-10.731h5.559v10.082c0,1.735,0.231,2.961,0.688,3.685
			c0.46,0.723,1.315,1.081,2.559,1.081c0.495,0,0.962-0.037,1.401-0.123c0.438-0.085,0.824-0.176,1.171-0.271v-14.463h5.557
			L481.751,1931.174L481.751,1931.174L481.751,1931.174z"/>
		<path fill="#FCB61A" d="M460.709,1940.533c0,1.689-0.266,3.167-0.803,4.43c-0.526,1.269-1.234,2.324-2.1,3.166
			c-0.872,0.841-1.873,1.483-3,1.915c-1.139,0.431-2.296,0.652-3.495,0.652c-2.783,0-4.984-0.829-6.604-2.48
			c-1.613-1.649-2.425-4.081-2.425-7.283c0-0.313,0.02-0.658,0.041-1.034c0.022-0.375,0.051-0.699,0.078-0.993h12.607
			c-0.125-1.107-0.659-1.985-1.604-2.642c-0.944-0.649-2.213-0.974-3.803-0.974c-1.017,0-2.021,0.093-3.001,0.272
			c-0.981,0.179-1.783,0.398-2.405,0.67l-0.746-4.379c0.299-0.146,0.692-0.289,1.186-0.432c0.493-0.146,1.056-0.268,1.668-0.383
			c0.608-0.107,1.265-0.196,1.958-0.266c0.696-0.072,1.395-0.106,2.087-0.106c1.772,0,3.301,0.252,4.608,0.755
			c1.306,0.508,2.383,1.201,3.243,2.079c0.862,0.879,1.492,1.923,1.899,3.125C460.509,1937.844,460.709,1939.142,460.709,1940.533
			 M447.651,1942.599c0.026,0.455,0.109,0.903,0.252,1.337c0.141,0.435,0.349,0.824,0.629,1.16c0.291,0.337,0.651,0.613,1.082,0.836
			c0.442,0.216,0.978,0.323,1.624,0.323c0.623,0,1.164-0.102,1.604-0.309c0.452-0.202,0.819-0.476,1.118-0.81
			c0.305-0.34,0.532-0.729,0.688-1.175c0.163-0.448,0.271-0.898,0.354-1.358L447.651,1942.599L447.651,1942.599z"/>
		<path fill="#FCB61A" d="M430.938,1950.698c-1.638,0-3-0.18-4.101-0.545c-1.094-0.358-1.97-0.878-2.628-1.558
			c-0.659-0.675-1.125-1.491-1.395-2.452c-0.271-0.967-0.416-2.042-0.416-3.222v-11.205c0.794-0.171,1.905-0.366,3.322-0.6
			c1.415-0.227,3.129-0.344,5.145-0.344c1.267,0,2.415,0.107,3.457,0.325c1.025,0.219,1.918,0.573,2.662,1.066
			c0.747,0.498,1.322,1.142,1.719,1.933c0.393,0.797,0.595,1.778,0.595,2.932c0,1.107-0.23,2.05-0.688,2.825
			c-0.465,0.769-1.077,1.382-1.851,1.843c-0.766,0.456-1.655,0.787-2.649,0.996c-0.992,0.203-2.027,0.304-3.093,0.304
			c-0.723,0-1.363-0.033-1.922-0.09c-0.557-0.062-1.012-0.142-1.364-0.237v0.508c0,0.912,0.29,1.65,0.861,2.204
			c0.57,0.555,1.57,0.831,2.987,0.831c0.948,0,1.877-0.062,2.793-0.2c0.921-0.128,1.714-0.318,2.382-0.556l0.712,4.338
			c-0.327,0.098-0.732,0.198-1.213,0.309c-0.48,0.104-1.011,0.204-1.582,0.286c-0.57,0.085-1.179,0.152-1.809,0.218
			C432.226,1950.666,431.586,1950.698,430.938,1950.698 M430.493,1934.936c-0.548,0-1.064,0.009-1.567,0.033
			c-0.497,0.023-0.898,0.061-1.198,0.108v4.087c0.226,0.05,0.56,0.095,1.012,0.145c0.447,0.049,0.86,0.067,1.234,0.067
			c0.52,0,1.014-0.028,1.471-0.089s0.862-0.179,1.211-0.344c0.35-0.17,0.617-0.399,0.821-0.691c0.194-0.285,0.299-0.648,0.299-1.076
			c0-0.847-0.299-1.433-0.877-1.759C432.314,1935.102,431.511,1934.936,430.493,1934.936"/>
		<path fill="#FCB61A" d="M400.053,1931.785c0.498-0.143,1.065-0.287,1.719-0.419c0.649-0.129,1.319-0.244,2.032-0.339
			c0.707-0.1,1.43-0.178,2.164-0.237c0.734-0.061,1.438-0.089,2.108-0.089c1.614,0,3.061,0.227,4.327,0.688
			c1.267,0.455,2.335,1.111,3.202,1.971c0.873,0.854,1.542,1.89,1.996,3.105c0.455,1.216,0.692,2.584,0.692,4.104
			c0,1.538-0.201,2.93-0.597,4.173c-0.401,1.248-0.972,2.296-1.722,3.165c-0.744,0.869-1.656,1.533-2.739,1.987
			c-1.081,0.457-2.32,0.686-3.711,0.686c-0.773,0-1.459-0.066-2.067-0.219c-0.616-0.143-1.229-0.346-1.851-0.611v5.684l-5.555,0.868
			v-24.517H400.053L400.053,1931.785L400.053,1931.785z M412.629,1940.828c0-1.66-0.39-3.002-1.157-4.013
			c-0.77-1.009-1.913-1.516-3.428-1.516c-0.504,0-0.962,0.019-1.383,0.048c-0.426,0.044-0.772,0.084-1.048,0.129v9.8
			c0.353,0.219,0.798,0.398,1.364,0.547c0.559,0.142,1.125,0.216,1.698,0.216C411.314,1946.037,412.629,1944.299,412.629,1940.828"
			/>
		<path fill="#FCB61A" d="M389.199,1935.045c-1.021,0-1.738,0.095-2.167,0.284c-0.421,0.191-0.637,0.569-0.637,1.123
			c0,0.43,0.279,0.814,0.824,1.138c0.554,0.327,1.378,0.699,2.499,1.105c0.874,0.314,1.66,0.637,2.373,0.977
			c0.705,0.34,1.308,0.743,1.804,1.209c0.5,0.469,0.88,1.03,1.157,1.68c0.274,0.655,0.413,1.439,0.413,2.35
			c0,1.781-0.688,3.197-2.054,4.232c-1.367,1.036-3.246,1.556-5.628,1.556c-1.196,0-2.336-0.101-3.434-0.306
			c-1.09-0.207-1.971-0.434-2.615-0.672l0.972-4.194c0.647,0.218,1.353,0.41,2.108,0.577c0.755,0.167,1.606,0.256,2.55,0.256
			c1.742,0,2.616-0.47,2.616-1.412c0-0.217-0.039-0.409-0.112-0.577c-0.067-0.172-0.223-0.335-0.448-0.49
			c-0.226-0.151-0.53-0.321-0.918-0.508c-0.383-0.182-0.873-0.381-1.471-0.598c-1.218-0.438-2.223-0.867-3.019-1.294
			c-0.792-0.425-1.419-0.883-1.884-1.374c-0.46-0.495-0.782-1.043-0.963-1.644c-0.188-0.603-0.278-1.301-0.278-2.095
			c0-1.874,0.73-3.292,2.178-4.253c1.454-0.963,3.507-1.442,6.175-1.442c1.743,0,3.192,0.142,4.342,0.426
			c1.166,0.295,1.966,0.532,2.407,0.727l-0.931,4.378c-0.944-0.358-1.914-0.646-2.911-0.855
			C391.153,1935.145,390.168,1935.045,389.199,1935.045"/>
	</g>
</g>
<g id="Layer_2_2_" opacity="0.2">
	<path fill="#006241" d="M685.421,64.297c0-4.861-3.956-8.812-8.812-8.812H414.297c-6.716,0-13.383-1.584-19.356-4.644
		c-5.094-2.604-10.865-4.079-16.977-4.079c-20.646-0.002-37.441,16.79-37.441,37.431c0,20.644,16.795,37.436,37.441,37.436
		c5.876,0,11.442-1.37,16.394-3.793c5.857-2.877,12.198-4.329,18.722-4.329h263.524c4.858,0,8.806-3.954,8.806-8.806L685.421,64.297
		L685.421,64.297z"/>
	<path fill="#FFB819" d="M400.173,63.655l-0.149-0.724c-0.073-0.247-0.166-0.489-0.253-0.73c-0.166-0.489-0.451-0.937-0.705-1.394
		c-0.306-0.415-0.605-0.859-0.962-1.196l-0.541-0.515c-0.186-0.156-0.378-0.295-0.57-0.433c-0.38-0.302-0.77-0.503-1.165-0.733
		c-1.571-0.835-3.109-1.221-4.597-1.448c-1.486-0.215-2.917-0.27-4.32-0.221c-2.803,0.106-5.482,0.556-8.035,1.225
		c-1.277,0.33-2.522,0.707-3.734,1.149c-1.21,0.428-2.391,0.897-3.514,1.412c-4.541,2.04-8.438,4.702-11.288,7.538
		c-0.564,0.555-1.069,1.13-1.546,1.693c-4.45,4.343-7.216,10.377-7.216,17.069c0,13.16,10.703,23.859,23.855,23.859
		c13.163,0,23.862-10.706,23.862-23.859c0-4.318-1.166-8.358-3.179-11.849c0.012-0.019,0.033-0.036,0.045-0.056
		c1.447-1.822,2.96-3.871,3.805-6.863c0.085-0.394,0.182-0.779,0.242-1.187c0.047-0.434,0.103-0.854,0.087-1.313
		C400.286,64.601,400.289,64.153,400.173,63.655z M375.444,103.403c-9.415,0-17.07-7.656-17.07-17.066
		c0-7.233,4.526-13.412,10.887-15.89c1.094-0.311,2.156-0.486,3.099-0.414c0.938,0.043,1.728,0.308,2.469,0.744
		c0.087,0.06,0.188,0.104,0.281,0.169l0.257,0.222l0.28,0.198l0.252,0.259c0.36,0.312,0.646,0.761,0.972,1.167
		c0.15,0.233,0.293,0.459,0.435,0.687c0.154,0.224,0.248,0.5,0.395,0.738c0.288,0.482,0.461,1.038,0.697,1.552
		c0.423,1.063,0.765,2.15,1.042,3.188c0.183,0.511,0.265,1.026,0.394,1.508c0.125,0.489,0.26,0.955,0.345,1.406
		c0.179,0.896,0.404,1.687,0.524,2.348c0.127,0.665,0.276,1.189,0.353,1.551c0.088,0.361,0.153,0.556,0.153,0.556
		s0.087-0.178,0.236-0.523c0.143-0.339,0.379-0.839,0.621-1.498c0.264-0.652,0.471-1.46,0.735-2.396
		c0.15-0.468,0.209-0.98,0.321-1.524c0.094-0.545,0.199-1.115,0.247-1.727c0.048-0.612,0.113-1.25,0.109-1.917
		c-0.021-0.676-0.002-1.374-0.094-2.112c-0.088-0.733-0.183-1.486-0.394-2.271c-0.098-0.511-0.275-1.026-0.469-1.541
		c2.576,1.178,4.804,2.986,6.5,5.216c-0.07,0.107-0.149,0.218-0.219,0.316c-1.075,1.497-2.109,2.856-3.029,4.058
		c-0.944,1.208-1.764,2.265-2.44,3.127c-0.675,0.885-1.211,1.574-1.576,2.046c-0.359,0.482-0.553,0.738-0.553,0.738
		s0.281-0.161,0.806-0.449c0.512-0.304,1.295-0.712,2.237-1.325c0.951-0.585,2.081-1.339,3.35-2.259
		c1.081-0.788,2.266-1.707,3.496-2.759c0.906,2.08,1.41,4.372,1.41,6.792C392.51,95.755,384.85,103.403,375.444,103.403z
		 M382.417,63.523c1.584-0.256,3.171-0.439,4.719-0.479c1.104-0.05,2.178-0.018,3.167,0.111c0.978,0.139,1.901,0.334,2.517,0.639
		c0.139,0.08,0.315,0.144,0.416,0.224l0.18,0.108c0.042,0.041,0.079,0.075,0.129,0.112c0.109,0.063,0.128,0.135,0.222,0.187
		c0.025,0.078,0.123,0.124,0.143,0.208c0.179,0.286,0.295,0.856,0.183,1.655c-0.177,1.144-0.674,2.437-1.303,3.71
		C389.979,67.019,386.43,64.751,382.417,63.523z"/>
	<g>
		<path fill="#FCB61A" d="M423.003,85.397c-0.604,2.216-1.247,4.42-1.92,6.61c-0.677,2.185-1.4,4.387-2.146,6.613h-5.232
			c-0.55-1.229-1.136-2.69-1.774-4.383c-0.63-1.687-1.289-3.539-1.969-5.535c-0.68-2-1.375-4.112-2.077-6.343
			c-0.719-2.236-1.402-4.483-2.063-6.768h7.089c0.239,1.048,0.509,2.198,0.794,3.432c0.295,1.245,0.585,2.521,0.913,3.836
			c0.318,1.313,0.652,2.633,1,3.963c0.348,1.325,0.702,2.61,1.065,3.831c0.392-1.288,0.777-2.601,1.153-3.945
			c0.371-1.339,0.735-2.659,1.081-3.956c0.346-1.296,0.68-2.555,0.997-3.764c0.314-1.216,0.593-2.345,0.836-3.392h4.87
			c0.248,1.046,0.519,2.181,0.813,3.392c0.301,1.207,0.618,2.468,0.949,3.764c0.327,1.294,0.678,2.619,1.042,3.956
			c0.363,1.342,0.735,2.652,1.134,3.945c0.361-1.224,0.723-2.506,1.086-3.831c0.361-1.33,0.707-2.641,1.024-3.963
			c0.319-1.31,0.623-2.592,0.915-3.836c0.287-1.233,0.554-2.383,0.797-3.432h6.995c-0.662,2.279-1.349,4.532-2.057,6.768
			c-0.711,2.233-1.409,4.349-2.085,6.343c-0.678,1.996-1.344,3.848-1.994,5.535c-0.653,1.696-1.252,3.153-1.787,4.383h-5.237
			c-0.753-2.224-1.489-4.429-2.219-6.613C424.267,89.817,423.603,87.613,423.003,85.397"/>
		<polygon fill="#FCB61A" points="450.663,98.615 443.938,98.615 443.938,76.772 450.663,75.591 		"/>
		<path fill="#FCB61A" d="M456.982,76.381c1.149-0.317,2.621-0.621,4.429-0.899c1.803-0.278,3.7-0.42,5.691-0.42
			c2.021,0,3.698,0.262,5.04,0.77c1.336,0.513,2.396,1.234,3.188,2.162c0.78,0.935,1.334,2.039,1.665,3.325
			c0.328,1.289,0.499,2.714,0.499,4.294v12.999h-6.733V86.404c0-2.102-0.287-3.587-0.854-4.464
			c-0.573-0.876-1.646-1.311-3.206-1.311c-0.487,0-0.993,0.023-1.537,0.062c-0.542,0.048-1.026,0.097-1.448,0.153v17.772h-6.728
			L456.982,76.381L456.982,76.381z"/>
		<path fill="#FCB61A" d="M483.587,76.381c1.144-0.317,2.618-0.621,4.422-0.899c1.803-0.278,3.706-0.42,5.695-0.42
			c2.023,0,3.697,0.262,5.038,0.77c1.34,0.513,2.396,1.234,3.182,2.162c0.783,0.935,1.341,2.039,1.669,3.325
			c0.325,1.289,0.495,2.714,0.495,4.294v12.999h-6.726V86.404c0-2.102-0.289-3.587-0.856-4.464
			c-0.573-0.876-1.651-1.311-3.214-1.311c-0.479,0-0.991,0.023-1.535,0.062c-0.54,0.048-1.022,0.097-1.442,0.153v17.772h-6.724
			L483.587,76.381L483.587,76.381z"/>
		<path fill="#FCB61A" d="M509.053,87.282c0-2.043,0.324-3.834,0.971-5.363c0.651-1.531,1.498-2.812,2.556-3.83
			c1.047-1.021,2.264-1.796,3.63-2.317c1.371-0.529,2.778-0.793,4.224-0.793c3.373,0,6.034,1.003,7.994,3.003
			c1.959,1.998,2.93,4.939,2.93,8.817c0,0.383-0.011,0.799-0.039,1.252c-0.033,0.454-0.062,0.848-0.092,1.201h-15.26
			c0.151,1.342,0.8,2.403,1.937,3.196c1.144,0.791,2.672,1.181,4.605,1.181c1.241,0,2.44-0.114,3.631-0.327
			c1.184-0.218,2.156-0.485,2.907-0.81l0.905,5.3c-0.358,0.178-0.832,0.35-1.44,0.526c-0.603,0.175-1.28,0.322-2.016,0.459
			c-0.736,0.133-1.529,0.239-2.369,0.319c-0.845,0.093-1.685,0.132-2.527,0.132c-2.14,0-3.985-0.304-5.575-0.917
			c-1.578-0.612-2.89-1.452-3.929-2.514c-1.043-1.063-1.809-2.328-2.304-3.782C509.299,90.542,509.053,88.969,509.053,87.282
			 M524.864,84.785c-0.036-0.555-0.135-1.092-0.306-1.62c-0.157-0.527-0.419-0.998-0.761-1.405
			c-0.349-0.408-0.786-0.739-1.313-1.013c-0.531-0.261-1.173-0.391-1.959-0.391c-0.754,0-1.397,0.124-1.938,0.374
			c-0.542,0.245-0.997,0.575-1.357,0.98c-0.357,0.411-0.646,0.882-0.832,1.42c-0.196,0.545-0.335,1.088-0.433,1.646L524.864,84.785
			L524.864,84.785z"/>
		<path fill="#FCB61A" d="M550.871,81.374c-0.606-0.15-1.307-0.308-2.124-0.466c-0.812-0.161-1.685-0.233-2.621-0.233
			c-0.427,0-0.921,0.032-1.512,0.107c-0.593,0.068-1.043,0.152-1.334,0.244V98.62h-6.738V76.821
			c1.209-0.411,2.635-0.796,4.276-1.161c1.646-0.368,3.471-0.549,5.484-0.549c0.363,0,0.793,0.026,1.305,0.06
			c0.523,0.049,1.035,0.104,1.539,0.182c0.512,0.068,1.024,0.163,1.532,0.267c0.517,0.098,0.947,0.221,1.303,0.37L550.871,81.374z"
			/>
		<path fill="#FCB61A" d="M555.613,98.611V69.245l6.732-1.049v7.49c0.449-0.147,1.035-0.285,1.74-0.417
			c0.709-0.132,1.396-0.198,2.053-0.198c1.927,0,3.523,0.257,4.811,0.77c1.282,0.511,2.301,1.233,3.071,2.161
			c0.771,0.937,1.313,2.041,1.626,3.328c0.314,1.289,0.479,2.713,0.479,4.294v12.994h-6.732V86.415c0-2.101-0.275-3.586-0.833-4.464
			c-0.558-0.876-1.594-1.31-3.093-1.31c-0.604,0-1.168,0.052-1.695,0.152c-0.53,0.101-1,0.213-1.42,0.328v17.505h-6.731
			L555.613,98.611L555.613,98.611L555.613,98.611z"/>
		<path fill="#FCB61A" d="M581.09,87.282c0-2.043,0.32-3.834,0.97-5.363c0.64-1.531,1.495-2.812,2.541-3.83
			c1.058-1.021,2.271-1.796,3.635-2.317c1.38-0.529,2.777-0.793,4.228-0.793c3.369,0,6.03,1.003,7.998,3.003
			c1.953,1.998,2.937,4.939,2.937,8.817c0,0.383-0.022,0.799-0.054,1.252c-0.029,0.454-0.061,0.848-0.091,1.201h-15.267
			c0.158,1.342,0.799,2.403,1.95,3.196c1.138,0.791,2.671,1.181,4.598,1.181c1.229,0,2.448-0.114,3.632-0.327
			c1.19-0.218,2.157-0.485,2.914-0.81l0.903,5.3c-0.361,0.178-0.838,0.35-1.438,0.526c-0.596,0.175-1.275,0.322-2.016,0.459
			c-0.737,0.13-1.53,0.239-2.378,0.319c-0.837,0.093-1.685,0.132-2.521,0.132c-2.145,0-3.993-0.304-5.578-0.917
			c-1.583-0.612-2.883-1.452-3.927-2.514c-1.044-1.063-1.807-2.328-2.301-3.782C581.329,90.542,581.09,88.969,581.09,87.282
			 M596.898,84.785c-0.037-0.555-0.135-1.092-0.306-1.62c-0.173-0.527-0.427-0.998-0.768-1.405c-0.35-0.408-0.786-0.739-1.304-1.013
			c-0.534-0.261-1.184-0.391-1.966-0.391c-0.757,0-1.413,0.124-1.94,0.374c-0.555,0.245-0.998,0.575-1.357,0.98
			c-0.367,0.411-0.646,0.882-0.839,1.42c-0.19,0.545-0.32,1.088-0.427,1.646L596.898,84.785L596.898,84.785z"/>
		<path fill="#FCB61A" d="M617.123,74.979c1.989,0,3.639,0.215,4.973,0.661c1.32,0.434,2.38,1.063,3.179,1.885
			c0.8,0.815,1.36,1.805,1.689,2.972c0.326,1.167,0.501,2.471,0.501,3.897v13.568c-0.961,0.204-2.306,0.439-4.019,0.721
			c-1.715,0.276-3.789,0.417-6.231,0.417c-1.533,0-2.927-0.129-4.185-0.394c-1.241-0.264-2.321-0.69-3.227-1.288
			c-0.906-0.604-1.596-1.385-2.077-2.339c-0.473-0.966-0.72-2.15-0.72-3.55c0-1.342,0.28-2.482,0.835-3.42
			c0.558-0.927,1.298-1.67,2.242-2.23c0.924-0.554,1.999-0.954,3.204-1.207c1.203-0.245,2.455-0.369,3.744-0.369
			c0.871,0,1.647,0.044,2.327,0.11c0.678,0.075,1.225,0.176,1.647,0.287v-0.614c0-1.104-0.347-1.998-1.038-2.667
			c-0.688-0.673-1.901-1.006-3.615-1.006c-1.15,0-2.277,0.074-3.386,0.242c-1.115,0.158-2.075,0.385-2.882,0.675l-0.862-5.25
			c0.397-0.118,0.885-0.241,1.47-0.374c0.584-0.126,1.222-0.247,1.915-0.348c0.693-0.103,1.428-0.184,2.188-0.262
			C615.57,75.02,616.347,74.979,617.123,74.979 M617.664,94.062c0.665,0,1.291-0.012,1.901-0.04
			c0.603-0.029,1.088-0.075,1.448-0.132v-4.946c-0.27-0.064-0.678-0.115-1.222-0.179c-0.541-0.061-1.044-0.084-1.496-0.084
			c-0.632,0-1.225,0.038-1.782,0.11c-0.551,0.074-1.037,0.215-1.466,0.419c-0.419,0.2-0.747,0.482-0.995,0.836
			c-0.232,0.342-0.36,0.788-0.36,1.302c0,1.026,0.36,1.732,1.062,2.129C615.461,93.861,616.435,94.062,617.664,94.062"/>
		<path fill="#FCB61A" d="M654.514,97.873c-0.597,0.175-1.287,0.348-2.081,0.509c-0.78,0.159-1.593,0.299-2.458,0.411
			c-0.853,0.121-1.728,0.215-2.616,0.29c-0.891,0.072-1.743,0.109-2.553,0.109c-1.954,0-3.7-0.278-5.241-0.836
			c-1.53-0.551-2.828-1.345-3.874-2.385c-1.052-1.035-1.864-2.288-2.415-3.758c-0.551-1.471-0.841-3.127-0.841-4.968
			c0-1.861,0.247-3.546,0.727-5.051c0.488-1.509,1.175-2.779,2.084-3.834c0.897-1.049,2.003-1.854,3.317-2.403
			c1.304-0.555,2.806-0.833,4.49-0.833c0.93,0,1.769,0.084,2.506,0.267c0.741,0.176,1.481,0.423,2.237,0.741v-6.877l6.724-1.052
			L654.514,97.873L654.514,97.873L654.514,97.873L654.514,97.873z M639.293,86.932c0,2.009,0.472,3.629,1.402,4.854
			c0.932,1.222,2.318,1.837,4.149,1.837c0.603,0,1.167-0.023,1.675-0.064c0.515-0.051,0.935-0.101,1.269-0.155V81.543
			c-0.425-0.267-0.964-0.483-1.648-0.664c-0.678-0.176-1.364-0.263-2.059-0.263C640.887,80.623,639.293,82.724,639.293,86.932"/>
		<path fill="#FCB61A" d="M667.653,93.932c1.242,0,2.11-0.117,2.629-0.347c0.511-0.229,0.771-0.686,0.771-1.359
			c0-0.521-0.342-0.983-0.998-1.376c-0.672-0.397-1.672-0.843-3.028-1.337c-1.052-0.382-2.006-0.773-2.867-1.182
			c-0.858-0.413-1.587-0.899-2.187-1.465c-0.608-0.563-1.068-1.245-1.403-2.03c-0.331-0.795-0.497-1.744-0.497-2.847
			c0-2.156,0.826-3.866,2.487-5.123c1.652-1.255,3.927-1.885,6.811-1.885c1.448,0,2.825,0.124,4.155,0.371
			c1.324,0.25,2.387,0.525,3.17,0.81l-1.188,5.081c-0.772-0.265-1.631-0.498-2.543-0.698c-0.915-0.202-1.943-0.309-3.094-0.309
			c-2.11,0-3.162,0.57-3.162,1.711c0,0.262,0.045,0.495,0.135,0.698c0.084,0.201,0.274,0.406,0.544,0.589
			c0.271,0.184,0.638,0.393,1.109,0.615c0.466,0.221,1.06,0.463,1.784,0.728c1.469,0.529,2.688,1.046,3.654,1.563
			c0.96,0.515,1.718,1.068,2.28,1.664c0.552,0.598,0.948,1.262,1.161,1.989c0.233,0.727,0.341,1.572,0.341,2.535
			c0,2.271-0.886,3.986-2.639,5.151c-1.76,1.167-4.248,1.744-7.473,1.744c-2.114,0-3.867-0.172-5.26-0.518
			c-1.407-0.355-2.38-0.644-2.914-0.879l1.128-5.3c1.144,0.432,2.316,0.785,3.521,1.035C665.29,93.81,666.487,93.932,667.653,93.932
			"/>
	</g>
</g>
<polygon points="57.146,1870.58 60.07,1877.043 53.981,1879.796 51.056,1873.34 "/>
<rect x="51.382" y="147.918" transform="matrix(0.3908 -0.9205 0.9205 0.3908 -105.416 143.2389)" width="8.257" height="6.689"/>
<rect x="976.584" y="148.472" transform="matrix(-0.4525 -0.8918 0.8918 -0.4525 1289.1307 1095.0698)" width="8.259" height="6.688"/>
<rect x="975.439" y="1871.193" transform="matrix(0.3995 -0.9167 0.9167 0.3995 -1130.2253 2023.5537)" width="8.261" height="6.686"/>
<g id="Layer_2">
</g>
</svg>
