<?xml version="1.0" encoding="utf-8"?>
<!-- Generator: Adobe Illustrator 16.0.4, SVG Export Plug-In . SVG Version: 6.00 Build 0)  -->
<!DOCTYPE svg PUBLIC "-//W3C//DTD SVG 1.1//EN" "http://www.w3.org/Graphics/SVG/1.1/DTD/svg11.dtd">
<svg version="1.1" id="Layer_1" xmlns="http://www.w3.org/2000/svg" xmlns:xlink="http://www.w3.org/1999/xlink" x="0px" y="0px"
	 width="1024px" height="768.25px" viewBox="0 0 1024.5 768.25" enable-background="new 0 0 1024.5 768.25" xml:space="preserve">
<path fill="#FFFFFF" stroke="#000000" stroke-width="6" stroke-miterlimit="10" d="M5.852,114.851
	c0-60.689,65.435-109.89,146.159-109.89h719.571c80.729,0,146.166,49.2,146.166,109.89v281.883
	c0,60.688-65.438,109.891-146.166,109.891H152.011c-80.725,0-146.159-49.203-146.159-109.891V114.851z"/>
<g opacity="0.4">
	<circle fill="#E2001A" stroke="#E2001A" stroke-width="2.6516" cx="512.327" cy="257.587" r="4.221"/>
	<path fill="#E2001A" stroke="#E2001A" stroke-width="2.6516" d="M80.515,223.067c-1.465,0-2.376,0.126-2.41,0.127l0.052,0.751
		c0.129-0.021,12.992-1.785,20.514,8.381c3.608,4.879,5.438,11.736,5.435,20.378c-0.003,9.229-1.932,16.589-5.733,21.871
		c-7.56,10.497-20.094,9.312-20.224,9.293l-0.039,0.757c0.132,0.016,12.883,1.225,20.611-9.493
		c3.907-5.435,5.892-12.975,5.892-22.426c0.004-8.863-1.883-15.916-5.608-20.939C93.317,224.079,84.682,223.067,80.515,223.067
		L80.515,223.067z"/>
	<line fill="none" stroke="#E2001A" stroke-width="2.6431" x1="77.04" y1="489.515" x2="77.24" y2="23.751"/>
	<line fill="none" stroke="#E2001A" stroke-width="2.6375" x1="946.119" y1="489.515" x2="946.325" y2="23.751"/>
	<line fill="none" stroke="#E2001B" stroke-width="5.2731" x1="512.326" y1="503.87" x2="512.326" y2="8.194"/>
	<line fill="none" stroke="#2C4291" stroke-width="5.2731" x1="640.527" y1="503.87" x2="640.527" y2="8.194"/>
	<line fill="none" stroke="#2C4291" stroke-width="5.2731" x1="390.663" y1="503.87" x2="390.663" y2="8.194"/>
	<ellipse fill="none" stroke="#E2002C" stroke-width="2.6516" cx="512.184" cy="257.058" rx="74.598" ry="73.861"/>
	<path fill="none" stroke="#E2002C" stroke-width="2.6516" d="M772.77,371.476c0-40.798,33.399-73.863,74.601-73.863
		c41.194,0,74.592,33.065,74.592,73.863c0,40.79-33.396,73.859-74.592,73.859C806.169,445.335,772.77,412.266,772.77,371.476z"/>
	<path fill="none" stroke="#E2002C" stroke-width="2.6516" d="M104.613,371.476c0-40.798,33.399-73.863,74.606-73.863
		c41.191,0,74.595,33.065,74.595,73.863c0,40.79-33.403,73.859-74.595,73.859C138.011,445.335,104.613,412.266,104.613,371.476z"/>
	<path fill="none" stroke="#E2002C" stroke-width="2.6516" d="M775.069,136.365c0-40.797,33.404-73.871,74.603-73.871
		c41.201,0,74.6,33.075,74.6,73.871c0,40.787-33.397,73.859-74.6,73.859C808.475,210.224,775.069,177.151,775.069,136.365z"/>
	<path fill="none" stroke="#E2002C" stroke-width="2.6516" d="M104.759,136.365c0-40.797,33.398-73.871,74.599-73.871
		c41.2,0,74.597,33.075,74.597,73.871c0,40.787-33.396,73.859-74.597,73.859C138.157,210.224,104.759,177.151,104.759,136.365z"/>
	<path fill="#E2001A" stroke="#E2001A" stroke-width="2.6516" d="M843.145,373.526c0-2.331,1.894-4.222,4.225-4.222
		c2.33,0,4.222,1.888,4.222,4.222c0,2.329-1.891,4.217-4.222,4.217C845.037,377.741,843.145,375.853,843.145,373.526z"/>
	<path fill="#E2001A" stroke="#E2001A" stroke-width="2.6516" d="M845.453,138.415c0-2.333,1.891-4.222,4.223-4.222
		c2.328,0,4.224,1.887,4.224,4.222c0,2.329-1.894,4.223-4.224,4.223C847.344,142.637,845.453,140.744,845.453,138.415z"/>
	<path fill="#E2001A" stroke="#E2001A" stroke-width="2.6516" d="M174.991,371.476c0-2.332,1.894-4.222,4.226-4.222
		c2.329,0,4.219,1.89,4.219,4.222c0,2.329-1.888,4.217-4.219,4.217C176.884,375.692,174.991,373.803,174.991,371.476z"/>
	<path fill="#E2001A" stroke="#E2001A" stroke-width="2.6516" d="M172.831,138.415c0-2.333,1.894-4.222,4.224-4.222
		s4.22,1.887,4.22,4.222c0,2.329-1.89,4.223-4.22,4.223C174.725,142.637,172.831,140.744,172.831,138.415z"/>
	<path fill="#E2001A" stroke="#E2001A" stroke-width="2.6516" d="M608.721,373.526c0-2.331,1.892-4.222,4.222-4.222
		c2.329,0,4.223,1.888,4.223,4.222c0,2.329-1.895,4.222-4.223,4.222C610.612,377.748,608.721,375.853,608.721,373.526z"/>
	<path fill="#E2001A" stroke="#E2001A" stroke-width="2.6516" d="M409.757,373.526c0-2.331,1.894-4.222,4.224-4.222
		c2.326,0,4.218,1.888,4.218,4.222c0,2.329-1.893,4.217-4.218,4.217C411.65,377.741,409.757,375.853,409.757,373.526z"/>
	<circle fill="#E2001A" stroke="#E2001A" stroke-width="2.6516" cx="613.041" cy="140.577" r="4.222"/>
	<path fill="#E2001A" stroke="#E2001A" stroke-width="2.6516" d="M409.757,138.415c0-2.333,1.894-4.222,4.224-4.222
		c2.326,0,4.218,1.887,4.218,4.222c0,2.329-1.893,4.223-4.218,4.223C411.65,142.637,409.757,140.747,409.757,138.415z"/>
	<path fill="#E2001A" stroke="#E2001A" stroke-width="2.6516" d="M943.708,223.067c1.464,0,2.381,0.126,2.411,0.127l-0.051,0.751
		c-0.127-0.021-12.992-1.785-20.516,8.381c-3.606,4.879-5.439,11.736-5.436,20.378c0.003,9.229,1.933,16.589,5.732,21.871
		c7.558,10.497,20.097,9.312,20.225,9.293l0.039,0.757c-0.131,0.016-12.884,1.225-20.61-9.493
		c-3.909-5.435-5.895-12.975-5.895-22.426c-0.002-8.863,1.882-15.916,5.606-20.939C930.904,224.079,939.54,223.067,943.708,223.067
		L943.708,223.067z"/>
</g>
<g id="Layer_2_1_" opacity="0.2">
	<path fill="#006241" d="M33.461,183.825c-2.027,0-3.677,1.65-3.677,3.675v109.473c0,2.803-0.661,5.585-1.938,8.079
		c-1.087,2.126-1.703,4.535-1.703,7.085c-0.001,8.614,7.007,15.623,15.622,15.623c8.614,0,15.622-7.007,15.622-15.623
		c0-2.452-0.571-4.775-1.583-6.842c-1.2-2.443-1.805-5.09-1.805-7.812v-109.98c0-2.025-1.651-3.675-3.676-3.675L33.461,183.825
		L33.461,183.825z"/>
	<path fill="#FFB819" d="M33.193,302.868l-0.302,0.062c-0.103,0.03-0.205,0.069-0.306,0.105c-0.204,0.071-0.391,0.189-0.581,0.295
		c-0.172,0.125-0.359,0.251-0.499,0.399l-0.215,0.228c-0.065,0.077-0.123,0.155-0.182,0.237c-0.125,0.16-0.21,0.321-0.306,0.485
		c-0.349,0.654-0.51,1.297-0.604,1.918c-0.091,0.619-0.113,1.219-0.093,1.802c0.046,1.17,0.232,2.288,0.511,3.354
		c0.138,0.531,0.295,1.052,0.48,1.558c0.178,0.504,0.373,0.997,0.59,1.469c0.851,1.893,1.961,3.518,3.146,4.709
		c0.232,0.236,0.47,0.447,0.706,0.646c1.812,1.855,4.332,3.009,7.124,3.009c5.491,0,9.958-4.467,9.958-9.955
		c0-5.49-4.468-9.957-9.958-9.957c-1.802,0-3.488,0.486-4.946,1.326c-0.007-0.005-0.013-0.012-0.022-0.02
		c-0.76-0.604-1.616-1.234-2.864-1.585c-0.165-0.039-0.326-0.077-0.497-0.104c-0.182-0.018-0.356-0.043-0.547-0.036
		C33.588,302.822,33.401,302.82,33.193,302.868z M49.784,313.188c0,3.928-3.196,7.123-7.122,7.123c-3.019,0-5.598-1.888-6.633-4.543
		c-0.13-0.456-0.203-0.902-0.171-1.294c0.017-0.391,0.128-0.72,0.311-1.029c0.025-0.037,0.043-0.078,0.07-0.119l0.092-0.105
		l0.083-0.117l0.108-0.105c0.131-0.149,0.318-0.268,0.487-0.405c0.097-0.064,0.191-0.122,0.288-0.183
		c0.093-0.062,0.208-0.104,0.308-0.163c0.202-0.12,0.433-0.194,0.647-0.293c0.445-0.175,0.898-0.319,1.33-0.434
		c0.214-0.077,0.429-0.11,0.63-0.164c0.204-0.054,0.397-0.108,0.586-0.144c0.373-0.077,0.704-0.169,0.98-0.22
		c0.276-0.053,0.496-0.116,0.647-0.147c0.151-0.036,0.232-0.064,0.232-0.064s-0.073-0.036-0.217-0.098
		c-0.143-0.061-0.352-0.159-0.625-0.259c-0.271-0.111-0.609-0.196-1.001-0.307c-0.195-0.063-0.409-0.088-0.634-0.134
		c-0.228-0.04-0.466-0.084-0.722-0.103c-0.255-0.021-0.521-0.048-0.8-0.046c-0.281,0.008-0.572,0-0.88,0.038
		c-0.306,0.036-0.621,0.076-0.947,0.166c-0.214,0.041-0.427,0.112-0.644,0.194c0.493-1.075,1.245-2.004,2.178-2.713
		c0.044,0.028,0.09,0.062,0.132,0.092c0.624,0.447,1.191,0.88,1.692,1.264c0.505,0.396,0.946,0.737,1.307,1.02
		c0.368,0.282,0.657,0.506,0.853,0.657c0.202,0.15,0.309,0.229,0.309,0.229s-0.066-0.117-0.187-0.335
		c-0.128-0.214-0.298-0.543-0.554-0.934c-0.246-0.396-0.559-0.868-0.942-1.398c-0.328-0.45-0.712-0.945-1.15-1.459
		c0.868-0.379,1.825-0.59,2.833-0.59C46.588,306.065,49.784,309.263,49.784,313.188z M33.137,310.278
		c-0.107-0.66-0.184-1.322-0.2-1.969c-0.02-0.461-0.008-0.909,0.046-1.322c0.059-0.407,0.139-0.793,0.267-1.049
		c0.033-0.058,0.059-0.134,0.093-0.175l0.046-0.075c0.016-0.017,0.032-0.032,0.047-0.053c0.025-0.046,0.056-0.055,0.078-0.094
		c0.033-0.01,0.052-0.05,0.088-0.06c0.119-0.072,0.357-0.12,0.689-0.074c0.477,0.071,1.017,0.28,1.548,0.542
		C34.596,307.123,33.649,308.603,33.137,310.278z"/>
	<g>
		<path fill="#FCB61A" d="M42.267,293.341c0.924,0.252,1.844,0.519,2.758,0.8c0.913,0.283,1.832,0.585,2.76,0.897v2.184
			c-0.512,0.229-1.123,0.474-1.829,0.74c-0.705,0.262-1.476,0.538-2.31,0.82c-0.834,0.282-1.717,0.574-2.646,0.869
			c-0.934,0.3-1.872,0.583-2.825,0.861v-2.96c0.438-0.098,0.918-0.211,1.432-0.332c0.52-0.121,1.053-0.245,1.602-0.38
			c0.547-0.131,1.098-0.271,1.653-0.417c0.553-0.144,1.088-0.292,1.598-0.444c-0.537-0.163-1.085-0.324-1.646-0.482
			c-0.559-0.153-1.111-0.307-1.651-0.451c-0.542-0.146-1.066-0.282-1.57-0.415c-0.507-0.132-0.979-0.247-1.417-0.35v-2.034
			c0.437-0.101,0.91-0.213,1.417-0.337c0.503-0.127,1.029-0.259,1.57-0.397c0.541-0.137,1.093-0.283,1.651-0.433
			c0.56-0.151,1.107-0.307,1.646-0.474c-0.511-0.151-1.045-0.302-1.598-0.456c-0.555-0.151-1.103-0.291-1.653-0.424
			c-0.548-0.134-1.083-0.262-1.602-0.383c-0.514-0.121-0.994-0.231-1.432-0.332v-2.919c0.952,0.276,1.892,0.564,2.825,0.859
			c0.931,0.296,1.814,0.588,2.646,0.871c0.833,0.281,1.605,0.562,2.31,0.833c0.708,0.271,1.317,0.521,1.829,0.745v2.184
			c-0.927,0.318-1.847,0.625-2.76,0.926C44.111,292.812,43.191,293.09,42.267,293.341"/>
		<polygon fill="#FCB61A" points="47.785,281.796 47.785,284.603 38.666,284.603 38.174,281.796 		"/>
		<path fill="#FCB61A" d="M38.503,279.159c-0.133-0.479-0.259-1.093-0.375-1.849c-0.116-0.75-0.174-1.544-0.174-2.375
			c0-0.843,0.108-1.542,0.32-2.104c0.213-0.556,0.515-1,0.902-1.329c0.391-0.328,0.852-0.557,1.388-0.696
			c0.537-0.138,1.132-0.208,1.792-0.208h5.425v2.809h-5.096c-0.877,0-1.497,0.121-1.862,0.357c-0.366,0.24-0.548,0.687-0.548,1.338
			c0,0.204,0.01,0.415,0.026,0.643c0.02,0.226,0.041,0.427,0.064,0.604h7.417v2.807L38.503,279.159L38.503,279.159z"/>
		<path fill="#FCB61A" d="M38.503,268.058c-0.133-0.479-0.259-1.095-0.375-1.847c-0.116-0.752-0.174-1.546-0.174-2.376
			c0-0.843,0.108-1.542,0.32-2.102c0.213-0.559,0.515-1.002,0.902-1.329c0.391-0.328,0.852-0.559,1.388-0.698
			c0.537-0.134,1.132-0.207,1.792-0.207h5.425v2.807h-5.096c-0.877,0-1.497,0.121-1.862,0.357c-0.366,0.24-0.548,0.691-0.548,1.341
			c0,0.201,0.01,0.414,0.026,0.64c0.02,0.226,0.041,0.427,0.064,0.601h7.417v2.809L38.503,268.058L38.503,268.058z"/>
		<path fill="#FCB61A" d="M43.054,257.43c-0.852,0-1.599-0.136-2.238-0.406c-0.64-0.271-1.174-0.625-1.599-1.065
			c-0.425-0.437-0.749-0.945-0.967-1.515c-0.219-0.573-0.33-1.159-0.33-1.762c0-1.408,0.419-2.518,1.252-3.335
			c0.834-0.818,2.062-1.225,3.68-1.225c0.159,0,0.333,0.004,0.523,0.016c0.189,0.016,0.353,0.027,0.5,0.039v6.369
			c0.56-0.062,1.003-0.333,1.334-0.808c0.329-0.479,0.494-1.117,0.494-1.922c0-0.518-0.048-1.02-0.138-1.516
			c-0.09-0.495-0.203-0.9-0.339-1.214l2.212-0.376c0.074,0.147,0.146,0.348,0.219,0.6c0.074,0.252,0.135,0.534,0.192,0.842
			c0.056,0.305,0.1,0.638,0.135,0.988c0.038,0.352,0.054,0.702,0.054,1.054c0,0.893-0.126,1.664-0.382,2.329
			c-0.256,0.657-0.606,1.205-1.05,1.639c-0.444,0.435-0.971,0.754-1.578,0.962C44.413,257.326,43.757,257.43,43.054,257.43
			 M42.011,250.831c-0.23,0.013-0.456,0.054-0.675,0.124c-0.22,0.068-0.417,0.177-0.587,0.319c-0.17,0.145-0.308,0.329-0.421,0.548
			c-0.109,0.221-0.163,0.49-0.163,0.818c0,0.314,0.051,0.583,0.156,0.809c0.102,0.226,0.24,0.416,0.409,0.565
			c0.171,0.149,0.369,0.268,0.593,0.349c0.228,0.081,0.455,0.14,0.687,0.179L42.011,250.831L42.011,250.831z"/>
		<path fill="#FCB61A" d="M40.589,239.975c-0.063,0.254-0.127,0.546-0.195,0.888c-0.066,0.339-0.097,0.703-0.097,1.094
			c0,0.177,0.014,0.384,0.044,0.631c0.029,0.247,0.063,0.432,0.102,0.555h7.342v2.812h-9.097c-0.17-0.502-0.332-1.098-0.484-1.784
			c-0.154-0.688-0.229-1.449-0.229-2.29c0-0.152,0.01-0.332,0.026-0.544c0.02-0.218,0.043-0.431,0.075-0.642
			c0.03-0.214,0.068-0.429,0.111-0.64c0.042-0.216,0.093-0.394,0.155-0.544L40.589,239.975z"/>
		<path fill="#FCB61A" d="M47.782,237.996H35.526l-0.438-2.808h3.126c-0.062-0.188-0.12-0.433-0.175-0.728
			c-0.054-0.295-0.082-0.582-0.082-0.857c0-0.802,0.108-1.471,0.32-2.007c0.214-0.534,0.514-0.96,0.903-1.281
			c0.392-0.32,0.853-0.549,1.389-0.678c0.537-0.132,1.132-0.2,1.792-0.2h5.422v2.809H42.69c-0.877,0-1.498,0.116-1.862,0.347
			c-0.366,0.232-0.547,0.665-0.547,1.292c0,0.251,0.021,0.486,0.062,0.708c0.043,0.221,0.089,0.416,0.137,0.592h7.307v2.807
			L47.782,237.996L47.782,237.996L47.782,237.996z"/>
		<path fill="#FCB61A" d="M43.054,227.365c-0.852,0-1.599-0.134-2.238-0.405c-0.64-0.266-1.174-0.624-1.599-1.061
			c-0.425-0.441-0.749-0.947-0.967-1.516c-0.219-0.575-0.33-1.16-0.33-1.766c0-1.407,0.419-2.519,1.252-3.337
			c0.834-0.815,2.062-1.226,3.68-1.226c0.159,0,0.333,0.01,0.523,0.021c0.189,0.011,0.353,0.026,0.5,0.04v6.37
			c0.56-0.063,1.003-0.333,1.334-0.811c0.329-0.477,0.494-1.118,0.494-1.921c0-0.513-0.048-1.021-0.138-1.517
			c-0.09-0.495-0.203-0.9-0.339-1.215l2.212-0.377c0.074,0.151,0.146,0.351,0.219,0.6c0.074,0.249,0.135,0.533,0.192,0.842
			c0.055,0.307,0.1,0.639,0.135,0.988c0.038,0.353,0.054,0.706,0.054,1.056c0,0.895-0.126,1.667-0.382,2.328
			c-0.256,0.66-0.606,1.203-1.05,1.638c-0.444,0.436-0.971,0.753-1.578,0.959C44.413,227.265,43.757,227.365,43.054,227.365
			 M42.011,220.769c-0.23,0.014-0.456,0.055-0.675,0.127c-0.22,0.071-0.417,0.177-0.587,0.318c-0.17,0.147-0.308,0.329-0.421,0.546
			c-0.109,0.224-0.163,0.493-0.163,0.82c0,0.315,0.051,0.588,0.156,0.811c0.102,0.229,0.24,0.414,0.409,0.565
			c0.171,0.154,0.369,0.269,0.593,0.349c0.228,0.082,0.455,0.137,0.687,0.179L42.011,220.769L42.011,220.769z"/>
		<path fill="#FCB61A" d="M37.918,212.325c0-0.828,0.091-1.516,0.275-2.072c0.182-0.552,0.444-0.995,0.788-1.328
			c0.34-0.333,0.752-0.568,1.239-0.705c0.488-0.137,1.031-0.21,1.627-0.21h5.662c0.085,0.401,0.184,0.962,0.302,1.679
			c0.114,0.715,0.173,1.581,0.173,2.599c0,0.64-0.054,1.22-0.165,1.746c-0.11,0.518-0.289,0.969-0.538,1.345
			c-0.252,0.378-0.577,0.668-0.976,0.868c-0.403,0.199-0.898,0.301-1.481,0.301c-0.56,0-1.035-0.117-1.427-0.347
			c-0.388-0.235-0.697-0.545-0.931-0.935c-0.231-0.387-0.398-0.837-0.504-1.339c-0.102-0.501-0.153-1.024-0.153-1.562
			c0-0.366,0.017-0.689,0.045-0.972c0.032-0.281,0.073-0.511,0.119-0.689h-0.255c-0.461,0-0.833,0.146-1.113,0.435
			c-0.28,0.288-0.42,0.793-0.42,1.509c0,0.479,0.032,0.948,0.101,1.411c0.066,0.465,0.161,0.866,0.281,1.204l-2.191,0.36
			c-0.049-0.166-0.101-0.371-0.156-0.613c-0.053-0.243-0.104-0.511-0.145-0.8c-0.043-0.288-0.076-0.595-0.109-0.914
			C37.936,212.975,37.918,212.652,37.918,212.325 M45.882,212.1c0-0.277-0.005-0.538-0.017-0.792
			c-0.011-0.251-0.031-0.454-0.055-0.605h-2.063c-0.026,0.114-0.048,0.283-0.074,0.511c-0.025,0.226-0.034,0.435-0.034,0.624
			c0,0.263,0.014,0.512,0.045,0.743c0.031,0.231,0.089,0.436,0.174,0.612c0.085,0.177,0.202,0.312,0.349,0.415
			c0.144,0.099,0.328,0.151,0.544,0.151c0.428,0,0.724-0.151,0.888-0.443C45.799,213.02,45.882,212.614,45.882,212.1"/>
		<path fill="#FCB61A" d="M47.474,196.721c0.072,0.252,0.145,0.538,0.211,0.869c0.067,0.328,0.125,0.667,0.172,1.026
			c0.05,0.357,0.089,0.723,0.12,1.093c0.031,0.371,0.045,0.727,0.045,1.065c0,0.815-0.115,1.546-0.349,2.186
			c-0.229,0.64-0.561,1.18-0.994,1.618c-0.433,0.441-0.956,0.779-1.57,1.008c-0.614,0.23-1.305,0.35-2.073,0.35
			c-0.777,0-1.48-0.101-2.109-0.301c-0.629-0.203-1.16-0.491-1.599-0.87c-0.438-0.376-0.774-0.837-1.003-1.384
			c-0.232-0.545-0.347-1.172-0.347-1.875c0-0.391,0.034-0.738,0.11-1.045c0.072-0.311,0.176-0.621,0.309-0.935h-2.87l-0.439-2.807
			L47.474,196.721L47.474,196.721L47.474,196.721L47.474,196.721z M42.906,203.075c0.838,0,1.516-0.197,2.026-0.585
			c0.51-0.389,0.767-0.966,0.767-1.732c0-0.254-0.01-0.486-0.026-0.698c-0.021-0.215-0.042-0.391-0.065-0.53h-4.95
			c-0.112,0.178-0.202,0.403-0.276,0.689c-0.073,0.283-0.11,0.568-0.11,0.857C40.274,202.41,41.153,203.075,42.906,203.075"/>
		<path fill="#FCB61A" d="M45.828,191.237c0-0.516-0.049-0.878-0.145-1.095c-0.097-0.212-0.288-0.321-0.567-0.321
			c-0.218,0-0.411,0.141-0.575,0.416c-0.164,0.28-0.352,0.696-0.558,1.263c-0.16,0.441-0.323,0.839-0.494,1.199
			c-0.172,0.356-0.375,0.661-0.612,0.912c-0.235,0.253-0.519,0.444-0.847,0.584c-0.332,0.139-0.727,0.208-1.188,0.208
			c-0.901,0-1.614-0.348-2.139-1.038c-0.523-0.69-0.786-1.639-0.786-2.843c0-0.604,0.052-1.18,0.155-1.734
			c0.104-0.551,0.219-0.996,0.339-1.321l2.12,0.491c-0.11,0.327-0.208,0.683-0.292,1.065c-0.085,0.381-0.129,0.812-0.129,1.288
			c0,0.88,0.238,1.322,0.714,1.322c0.109,0,0.207-0.02,0.292-0.057c0.085-0.034,0.168-0.113,0.246-0.226
			c0.077-0.114,0.164-0.268,0.256-0.464c0.093-0.194,0.194-0.441,0.304-0.743c0.221-0.615,0.437-1.123,0.653-1.525
			c0.215-0.4,0.446-0.717,0.695-0.952c0.25-0.232,0.526-0.396,0.829-0.486c0.305-0.096,0.657-0.141,1.059-0.141
			c0.947,0,1.663,0.369,2.149,1.101c0.486,0.734,0.729,1.772,0.729,3.12c0,0.88-0.073,1.612-0.216,2.193
			c-0.149,0.589-0.269,0.994-0.367,1.216l-2.211-0.47c0.181-0.477,0.327-0.967,0.431-1.471
			C45.776,192.225,45.828,191.727,45.828,191.237"/>
	</g>
</g>
<g id="Layer_2_2_" opacity="0.2">
	<path fill="#006241" d="M993.512,327.758c2.028,0,3.679-1.65,3.679-3.677V214.61c0-2.803,0.659-5.585,1.938-8.078
		c1.087-2.126,1.702-4.534,1.702-7.085c0.001-8.616-7.007-15.625-15.621-15.625c-8.615,0-15.623,7.009-15.623,15.625
		c0,2.453,0.572,4.775,1.583,6.842c1.201,2.444,1.808,5.091,1.808,7.812v109.978c0,2.025,1.649,3.674,3.675,3.674L993.512,327.758
		L993.512,327.758z"/>
	<path fill="#FFB819" d="M993.779,208.715l0.302-0.062c0.104-0.03,0.204-0.069,0.305-0.105c0.204-0.069,0.393-0.188,0.582-0.294
		c0.173-0.127,0.358-0.253,0.499-0.402l0.215-0.225c0.065-0.078,0.123-0.158,0.182-0.238c0.126-0.159,0.21-0.321,0.306-0.486
		c0.351-0.655,0.51-1.298,0.605-1.918c0.09-0.62,0.111-1.217,0.092-1.803c-0.044-1.169-0.231-2.288-0.511-3.353
		c-0.139-0.533-0.295-1.053-0.479-1.559c-0.179-0.505-0.375-0.998-0.59-1.466c-0.853-1.895-1.962-3.521-3.146-4.711
		c-0.23-0.235-0.472-0.446-0.706-0.645c-1.812-1.857-4.33-3.011-7.123-3.011c-5.491,0-9.957,4.466-9.957,9.956
		c0,5.493,4.468,9.958,9.957,9.958c1.802,0,3.487-0.486,4.944-1.327c0.008,0.005,0.016,0.014,0.022,0.019
		c0.761,0.604,1.615,1.235,2.864,1.588c0.164,0.035,0.324,0.076,0.495,0.101c0.182,0.02,0.356,0.043,0.548,0.037
		C993.385,208.762,993.572,208.763,993.779,208.715z M977.191,198.395c0-3.929,3.194-7.124,7.122-7.124
		c3.019,0,5.598,1.889,6.632,4.543c0.129,0.457,0.202,0.9,0.173,1.294c-0.02,0.392-0.129,0.721-0.312,1.03
		c-0.023,0.037-0.043,0.078-0.069,0.117l-0.092,0.107l-0.084,0.116l-0.107,0.106c-0.131,0.15-0.317,0.269-0.486,0.405
		c-0.098,0.063-0.191,0.123-0.287,0.182c-0.094,0.064-0.209,0.103-0.309,0.165c-0.201,0.12-0.433,0.192-0.647,0.291
		c-0.442,0.177-0.896,0.319-1.329,0.435c-0.215,0.076-0.429,0.11-0.631,0.164c-0.203,0.052-0.397,0.109-0.586,0.144
		c-0.375,0.075-0.704,0.168-0.979,0.219c-0.277,0.053-0.496,0.115-0.647,0.147c-0.148,0.038-0.23,0.064-0.23,0.064
		s0.074,0.037,0.219,0.098c0.141,0.06,0.35,0.158,0.624,0.259c0.272,0.11,0.609,0.197,1.001,0.307
		c0.195,0.062,0.408,0.087,0.636,0.134c0.229,0.04,0.465,0.083,0.722,0.103c0.255,0.02,0.521,0.046,0.8,0.045
		c0.282-0.009,0.573-0.001,0.882-0.04c0.306-0.037,0.62-0.076,0.947-0.165c0.214-0.041,0.429-0.114,0.643-0.195
		c-0.491,1.075-1.246,2.005-2.177,2.713c-0.044-0.029-0.091-0.062-0.132-0.092c-0.625-0.448-1.192-0.879-1.693-1.264
		c-0.504-0.394-0.945-0.737-1.305-1.019c-0.37-0.282-0.657-0.505-0.854-0.658c-0.201-0.15-0.309-0.231-0.309-0.231
		s0.066,0.118,0.188,0.336c0.127,0.213,0.298,0.54,0.554,0.933c0.244,0.397,0.56,0.868,0.942,1.398
		c0.328,0.451,0.712,0.946,1.151,1.459c-0.868,0.378-1.824,0.588-2.835,0.588C980.383,205.517,977.191,202.32,977.191,198.395z
		 M993.834,201.305c0.107,0.662,0.184,1.324,0.201,1.97c0.02,0.46,0.007,0.909-0.047,1.322c-0.059,0.408-0.141,0.793-0.268,1.05
		c-0.033,0.058-0.06,0.131-0.094,0.173l-0.046,0.075c-0.017,0.017-0.03,0.033-0.046,0.054c-0.026,0.046-0.058,0.054-0.078,0.092
		c-0.032,0.011-0.052,0.052-0.087,0.06c-0.119,0.075-0.357,0.123-0.69,0.076c-0.478-0.074-1.018-0.281-1.549-0.544
		C992.376,204.461,993.322,202.98,993.834,201.305z"/>
	<g>
		<path fill="#FCB61A" d="M984.706,218.243c-0.925-0.252-1.845-0.52-2.759-0.801c-0.912-0.282-1.83-0.584-2.76-0.895v-2.184
			c0.514-0.23,1.121-0.475,1.828-0.741c0.704-0.263,1.478-0.538,2.311-0.821c0.835-0.284,1.717-0.574,2.646-0.867
			c0.934-0.3,1.871-0.585,2.824-0.861v2.959c-0.438,0.1-0.917,0.212-1.432,0.332c-0.521,0.123-1.053,0.244-1.603,0.381
			c-0.548,0.132-1.099,0.272-1.652,0.417c-0.555,0.145-1.091,0.293-1.601,0.444c0.538,0.164,1.086,0.324,1.647,0.481
			c0.559,0.155,1.108,0.307,1.649,0.451c0.54,0.145,1.065,0.283,1.571,0.416c0.507,0.131,0.979,0.247,1.415,0.349v2.032
			c-0.438,0.103-0.91,0.216-1.415,0.339c-0.504,0.126-1.031,0.258-1.571,0.396c-0.54,0.136-1.093,0.282-1.649,0.435
			c-0.562,0.151-1.107,0.307-1.647,0.473c0.513,0.151,1.046,0.302,1.601,0.454c0.555,0.151,1.102,0.295,1.652,0.427
			c0.547,0.134,1.082,0.261,1.603,0.382c0.515,0.12,0.994,0.231,1.432,0.333v2.919c-0.951-0.276-1.892-0.562-2.824-0.859
			c-0.932-0.296-1.813-0.588-2.646-0.869c-0.833-0.284-1.605-0.562-2.311-0.833c-0.708-0.273-1.314-0.522-1.828-0.747v-2.186
			c0.928-0.314,1.848-0.621,2.76-0.926C982.861,218.77,983.781,218.493,984.706,218.243"/>
		<polygon fill="#FCB61A" points="979.189,229.787 979.189,226.98 988.305,226.98 988.798,229.787 		"/>
		<path fill="#FCB61A" d="M988.469,232.423c0.133,0.479,0.26,1.094,0.375,1.848c0.116,0.753,0.176,1.545,0.176,2.375
			c0,0.844-0.108,1.543-0.321,2.104c-0.213,0.558-0.516,1-0.902,1.33c-0.39,0.325-0.85,0.556-1.387,0.695
			c-0.538,0.136-1.133,0.208-1.792,0.208h-5.425v-2.809h5.095c0.877,0,1.497-0.12,1.862-0.357c0.365-0.239,0.547-0.687,0.547-1.337
			c0-0.204-0.011-0.415-0.025-0.642c-0.02-0.226-0.04-0.428-0.062-0.604h-7.417v-2.808L988.469,232.423L988.469,232.423z"/>
		<path fill="#FCB61A" d="M988.469,243.526c0.133,0.477,0.26,1.094,0.375,1.846c0.116,0.752,0.176,1.546,0.176,2.376
			c0,0.844-0.108,1.543-0.321,2.103s-0.516,1-0.902,1.328c-0.39,0.328-0.85,0.561-1.387,0.698c-0.538,0.135-1.133,0.206-1.792,0.206
			h-5.425v-2.807h5.095c0.877,0,1.497-0.121,1.862-0.357c0.365-0.239,0.547-0.689,0.547-1.342c0-0.199-0.011-0.413-0.025-0.64
			c-0.02-0.226-0.04-0.428-0.062-0.602h-7.417v-2.807L988.469,243.526L988.469,243.526z"/>
		<path fill="#FCB61A" d="M983.919,254.155c0.854,0,1.601,0.135,2.238,0.405c0.64,0.271,1.174,0.625,1.599,1.065
			c0.426,0.437,0.75,0.945,0.967,1.515c0.222,0.573,0.331,1.16,0.331,1.762c0,1.408-0.419,2.519-1.254,3.337
			c-0.833,0.818-2.062,1.223-3.68,1.223c-0.159,0-0.333-0.005-0.522-0.016c-0.188-0.016-0.354-0.027-0.502-0.04v-6.369
			c-0.56,0.062-1.002,0.333-1.333,0.809c-0.33,0.477-0.493,1.115-0.493,1.921c0,0.518,0.049,1.02,0.138,1.516
			c0.091,0.494,0.203,0.9,0.338,1.214l-2.211,0.377c-0.075-0.147-0.146-0.348-0.22-0.6c-0.073-0.251-0.136-0.534-0.192-0.842
			c-0.055-0.306-0.1-0.638-0.133-0.988c-0.038-0.353-0.056-0.703-0.056-1.054c0-0.894,0.128-1.664,0.383-2.328
			c0.256-0.658,0.605-1.206,1.05-1.639c0.442-0.435,0.972-0.754,1.578-0.962C982.559,254.256,983.215,254.155,983.919,254.155
			 M984.961,260.752c0.231-0.013,0.456-0.055,0.677-0.126c0.221-0.066,0.416-0.176,0.587-0.318c0.17-0.145,0.309-0.329,0.423-0.549
			c0.108-0.221,0.163-0.489,0.163-0.817c0-0.314-0.053-0.584-0.156-0.81c-0.103-0.226-0.239-0.415-0.409-0.565
			c-0.171-0.15-0.368-0.269-0.592-0.349c-0.229-0.08-0.455-0.139-0.688-0.179L984.961,260.752L984.961,260.752z"/>
		<path fill="#FCB61A" d="M986.385,271.606c0.062-0.254,0.129-0.546,0.194-0.888c0.067-0.338,0.098-0.703,0.098-1.094
			c0-0.177-0.014-0.384-0.045-0.631c-0.027-0.247-0.062-0.433-0.102-0.557h-7.343v-2.811h9.098c0.171,0.503,0.332,1.099,0.484,1.785
			s0.229,1.449,0.229,2.288c0,0.152-0.011,0.333-0.023,0.545c-0.021,0.218-0.045,0.432-0.076,0.643
			c-0.028,0.213-0.068,0.428-0.111,0.639c-0.041,0.216-0.093,0.395-0.155,0.543L986.385,271.606z"/>
		<path fill="#FCB61A" d="M979.191,273.587h12.255l0.438,2.808h-3.125c0.062,0.188,0.118,0.432,0.174,0.727
			c0.056,0.296,0.083,0.583,0.083,0.858c0,0.802-0.107,1.47-0.321,2.006c-0.213,0.535-0.515,0.961-0.901,1.281
			c-0.392,0.321-0.852,0.549-1.389,0.679c-0.538,0.132-1.133,0.199-1.792,0.199h-5.423v-2.809h5.093
			c0.877,0,1.497-0.115,1.862-0.347c0.365-0.233,0.547-0.665,0.547-1.292c0-0.251-0.021-0.487-0.063-0.708
			c-0.042-0.221-0.089-0.417-0.137-0.592h-7.306v-2.808L979.191,273.587L979.191,273.587L979.191,273.587z"/>
		<path fill="#FCB61A" d="M983.919,284.217c0.854,0,1.601,0.134,2.238,0.405c0.64,0.268,1.174,0.624,1.599,1.061
			c0.426,0.441,0.75,0.947,0.967,1.516c0.222,0.576,0.331,1.159,0.331,1.766c0,1.407-0.419,2.517-1.254,3.336
			c-0.833,0.815-2.062,1.226-3.68,1.226c-0.159,0-0.333-0.01-0.522-0.022c-0.188-0.011-0.354-0.025-0.502-0.038v-6.37
			c-0.56,0.063-1.002,0.332-1.333,0.812c-0.33,0.475-0.493,1.115-0.493,1.919c0,0.513,0.049,1.022,0.138,1.517
			c0.091,0.496,0.203,0.9,0.338,1.215l-2.211,0.376c-0.075-0.151-0.146-0.35-0.22-0.6c-0.074-0.25-0.136-0.533-0.192-0.842
			c-0.054-0.307-0.1-0.638-0.133-0.99c-0.038-0.352-0.056-0.704-0.056-1.054c0-0.895,0.128-1.667,0.383-2.329
			c0.256-0.659,0.605-1.202,1.05-1.639c0.442-0.434,0.972-0.753,1.578-0.958C982.559,284.318,983.215,284.217,983.919,284.217
			 M984.961,290.813c0.231-0.014,0.456-0.055,0.677-0.127c0.221-0.071,0.416-0.178,0.587-0.318c0.17-0.147,0.309-0.33,0.423-0.546
			c0.108-0.223,0.163-0.494,0.163-0.82c0-0.316-0.053-0.589-0.156-0.811c-0.103-0.229-0.239-0.415-0.409-0.566
			c-0.171-0.153-0.368-0.269-0.592-0.35c-0.229-0.078-0.455-0.134-0.688-0.178L984.961,290.813L984.961,290.813z"/>
		<path fill="#FCB61A" d="M989.054,299.256c0,0.829-0.09,1.517-0.275,2.074c-0.182,0.552-0.443,0.994-0.786,1.326
			c-0.341,0.333-0.754,0.569-1.24,0.707c-0.487,0.135-1.032,0.208-1.627,0.208h-5.662c-0.085-0.401-0.184-0.963-0.301-1.678
			c-0.115-0.715-0.174-1.581-0.174-2.6c0-0.639,0.054-1.221,0.164-1.747c0.109-0.518,0.288-0.969,0.537-1.344
			c0.252-0.379,0.577-0.668,0.977-0.869c0.403-0.198,0.896-0.301,1.481-0.301c0.56,0,1.035,0.117,1.427,0.348
			c0.388,0.233,0.697,0.542,0.931,0.936c0.231,0.386,0.398,0.835,0.504,1.338c0.104,0.501,0.153,1.024,0.153,1.563
			c0,0.365-0.018,0.688-0.045,0.972c-0.031,0.282-0.073,0.51-0.12,0.687h0.257c0.46,0,0.833-0.146,1.112-0.434
			c0.281-0.288,0.42-0.794,0.42-1.509c0-0.479-0.031-0.949-0.101-1.413c-0.065-0.464-0.16-0.866-0.281-1.202l2.189-0.36
			c0.051,0.166,0.103,0.37,0.156,0.612c0.053,0.245,0.104,0.511,0.146,0.799c0.043,0.29,0.075,0.597,0.107,0.914
			C989.037,298.607,989.054,298.931,989.054,299.256 M981.09,299.481c0,0.277,0.005,0.539,0.018,0.793
			c0.012,0.252,0.03,0.454,0.055,0.604h2.064c0.025-0.113,0.048-0.282,0.073-0.511c0.025-0.225,0.035-0.433,0.035-0.624
			c0-0.263-0.016-0.511-0.046-0.742c-0.031-0.231-0.09-0.436-0.175-0.613c-0.084-0.175-0.201-0.312-0.35-0.414
			c-0.144-0.1-0.329-0.151-0.544-0.151c-0.428,0-0.724,0.15-0.889,0.442C981.174,298.561,981.09,298.968,981.09,299.481"/>
		<path fill="#FCB61A" d="M979.499,314.86c-0.073-0.251-0.146-0.538-0.212-0.868c-0.066-0.327-0.125-0.666-0.172-1.028
			c-0.05-0.354-0.09-0.72-0.121-1.091c-0.03-0.371-0.046-0.726-0.046-1.065c0-0.815,0.117-1.545,0.35-2.187
			c0.23-0.64,0.562-1.181,0.995-1.617c0.432-0.439,0.955-0.776,1.569-1.009c0.613-0.229,1.305-0.35,2.071-0.35
			c0.777,0,1.48,0.104,2.108,0.302c0.63,0.204,1.16,0.492,1.6,0.871c0.438,0.375,0.774,0.835,1.003,1.384
			c0.231,0.545,0.35,1.171,0.35,1.874c0,0.39-0.035,0.738-0.112,1.046c-0.073,0.31-0.176,0.62-0.31,0.935h2.87l0.438,2.806
			L979.499,314.86L979.499,314.86L979.499,314.86L979.499,314.86z M984.065,308.507c-0.839,0-1.516,0.197-2.026,0.586
			c-0.51,0.389-0.766,0.967-0.766,1.731c0,0.253,0.01,0.487,0.025,0.698c0.021,0.216,0.042,0.391,0.064,0.53h4.95
			c0.11-0.178,0.2-0.403,0.275-0.688c0.073-0.283,0.109-0.568,0.109-0.859C986.698,309.172,985.821,308.507,984.065,308.507"/>
		<path fill="#FCB61A" d="M981.145,320.344c0,0.518,0.049,0.881,0.146,1.096c0.096,0.213,0.286,0.321,0.566,0.321
			c0.218,0,0.41-0.141,0.574-0.415c0.165-0.281,0.353-0.698,0.559-1.263c0.159-0.44,0.321-0.839,0.493-1.198
			c0.173-0.357,0.375-0.662,0.61-0.912c0.235-0.254,0.521-0.446,0.848-0.585c0.331-0.14,0.729-0.209,1.188-0.209
			c0.899,0,1.613,0.347,2.138,1.039c0.524,0.689,0.787,1.638,0.787,2.842c0,0.605-0.052,1.18-0.154,1.734
			c-0.104,0.552-0.221,0.996-0.339,1.322l-2.12-0.493c0.109-0.325,0.207-0.683,0.291-1.062c0.084-0.383,0.129-0.812,0.129-1.291
			c0-0.881-0.237-1.32-0.715-1.32c-0.107,0-0.205,0.02-0.291,0.057c-0.084,0.035-0.169,0.114-0.245,0.227
			c-0.076,0.114-0.164,0.268-0.257,0.463c-0.093,0.194-0.192,0.441-0.304,0.744c-0.221,0.615-0.437,1.122-0.651,1.526
			c-0.216,0.399-0.446,0.718-0.694,0.951c-0.25,0.231-0.527,0.396-0.83,0.485c-0.304,0.097-0.656,0.141-1.06,0.141
			c-0.946,0-1.662-0.369-2.148-1.101c-0.486-0.733-0.729-1.773-0.729-3.119c0-0.881,0.072-1.613,0.217-2.194
			c0.147-0.587,0.269-0.992,0.366-1.217l2.212,0.472c-0.181,0.477-0.327,0.967-0.432,1.47
			C981.195,319.358,981.145,319.855,981.145,320.344"/>
	</g>
</g>
<rect x="74.276" y="20.986" transform="matrix(-0.9111 0.4122 -0.4122 -0.9111 154.7186 11.9767)" width="3.583" height="3.377"/>
<rect x="944.909" y="20.958" transform="matrix(-0.9204 -0.3909 0.3909 -0.9204 1809.7837 413.6802)" width="4.171" height="3.379"/>
<rect x="944.646" y="488.427" transform="matrix(-0.8916 0.4527 -0.4527 -0.8916 2012.7761 498.5155)" width="4.174" height="3.377"/>
<rect x="74.329" y="487.804" transform="matrix(-0.9167 -0.3995 0.3995 -0.9167 -49.11 968.7482)" width="4.172" height="3.377"/>
<g id="Layer_2">
</g>
</svg>
