<?xml version="1.0" encoding="utf-8"?>
<!-- Generator: Adobe Illustrator 16.0.4, SVG Export Plug-In . SVG Version: 6.00 Build 0)  -->
<!DOCTYPE svg PUBLIC "-//W3C//DTD SVG 1.1//EN" "http://www.w3.org/Graphics/SVG/1.1/DTD/svg11.dtd">
<svg version="1.1"
	 id="svg2" xmlns:svg="http://www.w3.org/2000/svg" xmlns:sodipodi="http://sodipodi.sourceforge.net/DTD/sodipodi-0.dtd" xmlns:inkscape="http://www.inkscape.org/namespaces/inkscape" xmlns:rdf="http://www.w3.org/1999/02/22-rdf-syntax-ns#" xmlns:cc="http://web.resource.org/cc/" xmlns:dc="http://purl.org/dc/elements/1.1/" sodipodi:docname="Football_pitch_metric.svg" sodipodi:version="0.32" sodipodi:docbase="C:\Documents and Settings\Administrator\Desktop" inkscape:version="0.44"
	 xmlns="http://www.w3.org/2000/svg" xmlns:xlink="http://www.w3.org/1999/xlink" x="0px" y="0px" width="909px" height="668px"
	 viewBox="0 0 909 668" enable-background="new 0 0 909 668" xml:space="preserve">
<sodipodi:namedview  inkscape:window-width="1024" inkscape:document-units="px" inkscape:pageopacity="0.0" inkscape:pageshadow="2" inkscape:window-height="712" inkscape:window-x="212" inkscape:window-y="205" inkscape:current-layer="layer2" inkscape:guide-points="true" inkscape:guide-bbox="true" showguides="true" inkscape:cy="380.72301" inkscape:cx="521.66264" inkscape:zoom="1" showgrid="true" bordercolor="#666666" pagecolor="#ffffff" borderopacity="1.0" id="base">
	</sodipodi:namedview>
<rect y="-2.499" fill="#006241" width="908.303" height="1235.999"/>
<path id="path3095" sodipodi:nodetypes="cccc" fill="#FFFFFF" stroke="#006241" stroke-width="5.4389" d="M418.944,23.149V6.928
	h72.587v15.89"/>
<path id="path3122" sodipodi:nodetypes="cs" fill="none" stroke="#FFFFFF" stroke-width="5.4389" d="M885.941,22.646
	c0,0,2.627,11.005,14.136,13.731"/>
<path id="path2194" fill="none" stroke="#FFFFFF" stroke-width="5.4389" d="M900.057,1207.558H10.421L12.283,23.861L900.055,22
	L900.057,1207.558L900.057,1207.558z"/>
<path id="path2212" sodipodi:cx="336.13116" sodipodi:cy="254.39229" sodipodi:type="arc" sodipodi:ry="35.526058" sodipodi:rx="34.842865" fill="none" stroke="#FFFFFF" stroke-width="5.4389" stroke-linejoin="round" d="
	M454.832,527.821c49.926-0.008,90.404,40.462,90.413,90.388c0.008,49.927-40.459,90.401-90.389,90.413c-0.01,0-0.019,0-0.028,0
	c-49.926,0.009-90.406-40.464-90.413-90.389c-0.008-49.928,40.459-90.406,90.385-90.414
	C454.812,527.821,454.822,527.821,454.832,527.821z"/>
<path id="path3091" sodipodi:nodetypes="cccc" fill="none" stroke="#FFFFFF" stroke-width="5.4389" d="M655.535,22.622
	l-0.223,161.646H258.883V23.373"/>
<path id="path3093" sodipodi:nodetypes="cccc" fill="none" stroke="#FFFFFF" stroke-width="5.4389" d="M363.11,22.346V78.18
	l182.393-1.86V22.621"/>
<path id="path3097" sodipodi:nodetypes="cc" fill="none" stroke="#FFFFFF" stroke-width="5.4389" d="M526.004,184.626
	c-30.242,52.113-110.865,50.03-140.644-0.222"/>
<path id="path3107" fill="#006241" stroke="#FFFFFF" stroke-width="5.4389" d="M10.421,618.22h887.774l0,0"/>
<path id="path3124" sodipodi:nodetypes="cs" fill="none" stroke="#FFFFFF" stroke-width="5.4389" d="M12.958,39.244
	c0,0,11.006-2.625,13.732-14.136"/>
<path id="path3126" sodipodi:cx="513.85535" sodipodi:cy="253.57072" sodipodi:type="arc" sodipodi:ry="1.3453845" sodipodi:rx="1.0599999" fill="#FFFFFF" stroke="#FFFFFF" stroke-width="5.4389" stroke-miterlimit="10" d="
	M454.832,121.645c3.003-0.007,5.444,2.423,5.451,5.427c0.007,3.004-2.424,5.444-5.427,5.451c-0.008,0-0.016,0-0.024,0
	c-3.004,0.007-5.444-2.423-5.45-5.426c-0.008-3.005,2.422-5.444,5.426-5.452C454.817,121.645,454.823,121.645,454.832,121.645z"/>
<path id="path3130" sodipodi:cx="336.13116" sodipodi:cy="253.02589" sodipodi:type="arc" sodipodi:ry="1.3663868" sodipodi:rx="1.3663868" fill="#FFFFFF" stroke="#006241" stroke-width="5.4389" stroke-miterlimit="10" d="
	M454.832,612.781c3.003,0,5.439,2.436,5.439,5.438c0,3.005-2.436,5.44-5.439,5.44c-3.004,0-5.439-2.436-5.439-5.44
	C449.393,615.217,451.828,612.781,454.832,612.781L454.832,612.781z"/>
<g id="Layer_2_1_" opacity="0.2">
	<path fill="#006241" d="M871.287,551.253c0-4.011-3.262-7.271-7.268-7.271H647.534c-5.542,0-11.045-1.307-15.977-3.832
		c-4.206-2.148-8.97-3.366-14.011-3.366c-17.035-0.002-30.896,13.856-30.896,30.892c0,17.036,13.855,30.893,30.896,30.893
		c4.848,0,9.441-1.129,13.529-3.131c4.832-2.373,10.066-3.568,15.447-3.568h217.488c4.004,0,7.268-3.265,7.268-7.271
		L871.287,551.253L871.287,551.253z"/>
	<path fill="#FFB819" d="M635.877,550.723l-0.123-0.596c-0.059-0.205-0.138-0.406-0.209-0.605c-0.139-0.404-0.375-0.774-0.583-1.15
		c-0.245-0.34-0.497-0.707-0.79-0.985l-0.448-0.425c-0.153-0.129-0.309-0.244-0.47-0.359c-0.317-0.247-0.635-0.414-0.961-0.604
		c-1.293-0.69-2.564-1.009-3.793-1.195c-1.223-0.181-2.408-0.223-3.562-0.185c-2.314,0.091-4.524,0.458-6.633,1.011
		c-1.052,0.275-2.08,0.584-3.082,0.951c-0.995,0.352-1.97,0.736-2.902,1.165c-3.742,1.683-6.957,3.878-9.313,6.223
		c-0.466,0.458-0.884,0.93-1.278,1.396c-3.67,3.583-5.949,8.566-5.949,14.088c0,10.857,8.832,19.692,19.686,19.692
		c10.857,0,19.69-8.839,19.69-19.692c0-3.564-0.963-6.899-2.623-9.781c0.01-0.016,0.024-0.026,0.038-0.044
		c1.195-1.502,2.441-3.196,3.135-5.663c0.076-0.327,0.152-0.643,0.205-0.981c0.035-0.36,0.086-0.705,0.07-1.082
		C635.967,551.503,635.971,551.135,635.877,550.723z M615.467,583.532c-7.768,0-14.086-6.322-14.086-14.085
		c0-5.969,3.734-11.07,8.984-13.115c0.9-0.256,1.783-0.401,2.559-0.34c0.771,0.033,1.422,0.254,2.035,0.614
		c0.074,0.048,0.154,0.085,0.234,0.139l0.209,0.183l0.232,0.165l0.208,0.214c0.294,0.259,0.529,0.628,0.803,0.964
		c0.124,0.192,0.239,0.379,0.36,0.568c0.123,0.185,0.204,0.413,0.322,0.609c0.236,0.398,0.383,0.855,0.578,1.28
		c0.346,0.879,0.631,1.775,0.858,2.631c0.151,0.423,0.218,0.848,0.323,1.246c0.107,0.402,0.215,0.786,0.283,1.158
		c0.152,0.738,0.335,1.392,0.434,1.938c0.105,0.546,0.23,0.98,0.291,1.279c0.072,0.299,0.129,0.461,0.129,0.461
		s0.07-0.149,0.193-0.434c0.12-0.281,0.314-0.692,0.511-1.234c0.22-0.539,0.389-1.206,0.607-1.981
		c0.126-0.385,0.173-0.81,0.263-1.255c0.081-0.45,0.166-0.923,0.204-1.428c0.043-0.504,0.095-1.027,0.089-1.582
		c-0.014-0.556,0-1.132-0.076-1.74c-0.07-0.605-0.148-1.228-0.326-1.872c-0.081-0.422-0.224-0.846-0.386-1.272
		c2.125,0.973,3.964,2.462,5.366,4.306c-0.058,0.087-0.125,0.181-0.184,0.263c-0.885,1.233-1.738,2.355-2.497,3.347
		c-0.784,0.998-1.46,1.869-2.015,2.584c-0.561,0.728-1.002,1.298-1.301,1.686c-0.299,0.398-0.455,0.611-0.455,0.611
		s0.232-0.133,0.663-0.369c0.423-0.254,1.073-0.59,1.845-1.095c0.784-0.487,1.719-1.104,2.767-1.864
		c0.889-0.649,1.87-1.407,2.884-2.275c0.749,1.718,1.166,3.609,1.166,5.604C629.553,577.21,623.23,583.532,615.467,583.532z
		 M621.221,550.613c1.307-0.212,2.617-0.364,3.895-0.396c0.911-0.039,1.797-0.015,2.613,0.091c0.807,0.114,1.567,0.276,2.074,0.528
		c0.113,0.065,0.263,0.115,0.344,0.184l0.15,0.09c0.033,0.03,0.064,0.062,0.104,0.093c0.09,0.05,0.108,0.112,0.186,0.154
		c0.019,0.065,0.099,0.103,0.118,0.173c0.141,0.236,0.236,0.706,0.146,1.363c-0.143,0.943-0.555,2.012-1.072,3.061
		C627.461,553.497,624.534,551.625,621.221,550.613z"/>
	<g>
		<path fill="#FCB61A" d="M654.717,568.666c-0.498,1.829-1.027,3.648-1.583,5.455c-0.56,1.807-1.157,3.623-1.774,5.458h-4.32
			c-0.452-1.012-0.936-2.221-1.463-3.617c-0.516-1.392-1.062-2.919-1.621-4.566c-0.559-1.648-1.135-3.396-1.719-5.233
			c-0.592-1.847-1.152-3.703-1.701-5.588h5.854c0.193,0.867,0.416,1.814,0.656,2.833c0.239,1.026,0.482,2.08,0.752,3.167
			c0.258,1.083,0.535,2.172,0.824,3.269c0.285,1.096,0.58,2.154,0.879,3.16c0.322-1.06,0.641-2.146,0.953-3.253
			c0.304-1.106,0.609-2.197,0.893-3.266c0.289-1.071,0.557-2.108,0.822-3.105c0.26-1.004,0.487-1.936,0.692-2.801h4.022
			c0.199,0.865,0.422,1.8,0.666,2.801c0.252,0.996,0.513,2.035,0.785,3.105c0.271,1.069,0.561,2.162,0.856,3.266
			c0.299,1.106,0.607,2.188,0.937,3.253c0.299-1.009,0.598-2.065,0.9-3.16c0.301-1.097,0.578-2.181,0.842-3.269
			c0.264-1.084,0.516-2.14,0.756-3.167c0.238-1.019,0.458-1.966,0.656-2.833h5.773c-0.545,1.882-1.115,3.741-1.697,5.588
			c-0.587,1.841-1.162,3.588-1.723,5.233c-0.555,1.647-1.109,3.175-1.646,4.566c-0.535,1.399-1.029,2.605-1.473,3.617h-4.318
			c-0.629-1.833-1.236-3.651-1.832-5.458C655.762,572.314,655.211,570.494,654.717,568.666"/>
		<polygon fill="#FCB61A" points="677.545,579.577 671.996,579.577 671.996,561.548 677.545,560.572 		"/>
		<path fill="#FCB61A" d="M682.762,561.223c0.945-0.263,2.16-0.513,3.654-0.741c1.484-0.229,3.055-0.344,4.696-0.344
			c1.667,0,3.05,0.214,4.161,0.632c1.1,0.424,1.979,1.019,2.628,1.786c0.647,0.772,1.101,1.684,1.376,2.745
			c0.273,1.061,0.412,2.238,0.412,3.544v10.728h-5.555v-10.076c0-1.735-0.238-2.962-0.707-3.684
			c-0.475-0.724-1.359-1.083-2.646-1.083c-0.403,0-0.822,0.02-1.271,0.052c-0.446,0.04-0.845,0.08-1.193,0.126v14.668h-5.55
			L682.762,561.223L682.762,561.223z"/>
		<path fill="#FCB61A" d="M704.715,561.223c0.947-0.263,2.166-0.513,3.654-0.741c1.487-0.229,3.059-0.344,4.699-0.344
			c1.666,0,3.049,0.214,4.154,0.632c1.105,0.424,1.983,1.019,2.629,1.786c0.647,0.772,1.105,1.684,1.381,2.745
			c0.265,1.061,0.407,2.238,0.407,3.544v10.728h-5.55v-10.076c0-1.735-0.24-2.962-0.707-3.684c-0.475-0.724-1.367-1.083-2.652-1.083
			c-0.398,0-0.818,0.02-1.267,0.052c-0.446,0.04-0.845,0.08-1.188,0.126v14.668h-5.555L704.715,561.223L704.715,561.223z"/>
		<path fill="#FCB61A" d="M725.732,570.224c0-1.685,0.268-3.164,0.801-4.427c0.539-1.266,1.239-2.321,2.109-3.161
			c0.863-0.843,1.867-1.481,2.996-1.912c1.133-0.434,2.292-0.651,3.484-0.651c2.783,0,4.979,0.829,6.596,2.479
			c1.617,1.648,2.422,4.079,2.422,7.277c0,0.312-0.01,0.657-0.031,1.035c-0.031,0.374-0.055,0.698-0.077,0.991h-12.597
			c0.123,1.106,0.658,1.982,1.598,2.639c0.947,0.65,2.208,0.975,3.801,0.975c1.023,0,2.016-0.093,2.998-0.273
			c0.978-0.178,1.779-0.398,2.4-0.669l0.744,4.372c-0.292,0.147-0.688,0.291-1.188,0.433c-0.496,0.147-1.055,0.268-1.664,0.382
			c-0.605,0.111-1.262,0.197-1.956,0.266c-0.694,0.074-1.388,0.107-2.083,0.107c-1.766,0-3.291-0.251-4.605-0.755
			c-1.301-0.508-2.383-1.201-3.242-2.078c-0.859-0.876-1.488-1.921-1.902-3.12C725.936,572.91,725.732,571.614,725.732,570.224
			 M738.781,568.159c-0.025-0.457-0.107-0.9-0.245-1.335c-0.135-0.434-0.35-0.824-0.632-1.161c-0.286-0.335-0.65-0.609-1.083-0.833
			c-0.437-0.216-0.97-0.322-1.618-0.322c-0.621,0-1.154,0.102-1.6,0.308c-0.446,0.202-0.82,0.477-1.118,0.811
			c-0.295,0.338-0.529,0.728-0.688,1.171c-0.16,0.451-0.277,0.9-0.355,1.359L738.781,568.159L738.781,568.159z"/>
		<path fill="#FCB61A" d="M760.248,565.348c-0.503-0.124-1.08-0.253-1.756-0.387c-0.672-0.132-1.389-0.191-2.164-0.191
			c-0.35,0-0.76,0.027-1.248,0.086s-0.855,0.125-1.099,0.202v14.519h-5.561v-17.99c0.995-0.336,2.172-0.654,3.527-0.956
			c1.36-0.303,2.866-0.452,4.528-0.452c0.3,0,0.655,0.02,1.076,0.052c0.43,0.04,0.852,0.085,1.27,0.148
			c0.423,0.059,0.848,0.133,1.266,0.218c0.427,0.082,0.779,0.184,1.075,0.306L760.248,565.348z"/>
		<path fill="#FCB61A" d="M764.162,579.573v-24.235l5.553-0.867v6.18c0.372-0.122,0.854-0.235,1.438-0.346
			c0.585-0.106,1.149-0.162,1.696-0.162c1.586,0,2.907,0.214,3.969,0.634c1.057,0.424,1.898,1.017,2.533,1.786
			c0.632,0.773,1.085,1.685,1.34,2.747c0.262,1.06,0.396,2.237,0.396,3.543v10.723h-5.555v-10.072c0-1.734-0.23-2.961-0.688-3.684
			c-0.459-0.722-1.312-1.082-2.556-1.082c-0.495,0-0.962,0.041-1.399,0.124c-0.437,0.086-0.822,0.178-1.171,0.271v14.449h-5.552
			L764.162,579.573L764.162,579.573L764.162,579.573z"/>
		<path fill="#FCB61A" d="M785.184,570.224c0-1.685,0.265-3.164,0.802-4.427c0.526-1.266,1.233-2.321,2.099-3.161
			c0.871-0.843,1.872-1.481,2.996-1.912c1.137-0.434,2.294-0.651,3.492-0.651c2.781,0,4.98,0.829,6.599,2.479
			c1.612,1.648,2.425,4.079,2.425,7.277c0,0.312-0.021,0.657-0.041,1.035c-0.023,0.374-0.052,0.698-0.079,0.991h-12.597
			c0.125,1.106,0.66,1.982,1.604,2.639c0.941,0.65,2.211,0.975,3.799,0.975c1.016,0,2.018-0.093,3-0.273
			c0.979-0.178,1.781-0.398,2.402-0.669l0.745,4.372c-0.3,0.147-0.692,0.291-1.187,0.433c-0.491,0.147-1.053,0.268-1.666,0.382
			c-0.607,0.108-1.264,0.197-1.955,0.266c-0.697,0.074-1.395,0.107-2.086,0.107c-1.77,0-3.297-0.251-4.604-0.755
			c-1.304-0.508-2.38-1.201-3.24-2.078c-0.86-0.876-1.489-1.921-1.897-3.12C785.385,572.91,785.184,571.614,785.184,570.224
			 M798.23,568.159c-0.027-0.457-0.109-0.9-0.251-1.335c-0.142-0.434-0.349-0.824-0.63-1.161c-0.291-0.335-0.649-0.609-1.079-0.833
			c-0.443-0.216-0.977-0.322-1.622-0.322c-0.623,0-1.163,0.102-1.604,0.308c-0.451,0.202-0.818,0.477-1.117,0.811
			c-0.303,0.338-0.53,0.728-0.688,1.171c-0.162,0.451-0.271,0.9-0.354,1.359L798.23,568.159L798.23,568.159z"/>
		<path fill="#FCB61A" d="M814.928,560.067c1.637,0,2.996,0.179,4.098,0.544c1.092,0.36,1.967,0.878,2.626,1.558
			c0.658,0.674,1.124,1.487,1.394,2.45c0.271,0.964,0.414,2.04,0.414,3.219v11.194c-0.793,0.17-1.903,0.366-3.318,0.597
			c-1.414,0.228-3.126,0.345-5.14,0.345c-1.267,0-2.413-0.108-3.454-0.325c-1.025-0.219-1.918-0.571-2.661-1.065
			c-0.746-0.497-1.321-1.14-1.718-1.928c-0.393-0.797-0.594-1.778-0.594-2.93c0-1.107,0.229-2.048,0.688-2.823
			c0.465-0.768,1.076-1.379,1.849-1.84c0.765-0.457,1.655-0.789,2.647-0.996c0.99-0.202,2.025-0.306,3.089-0.306
			c0.724,0,1.362,0.034,1.921,0.091c0.557,0.063,1.012,0.143,1.363,0.236v-0.508c0-0.911-0.289-1.646-0.859-2.201
			c-0.57-0.556-1.568-0.83-2.984-0.83c-0.948,0-1.875,0.062-2.791,0.197c-0.92,0.132-1.711,0.318-2.379,0.557l-0.711-4.332
			c0.328-0.099,0.732-0.201,1.213-0.309c0.48-0.106,1.01-0.204,1.582-0.288c0.568-0.084,1.176-0.15,1.806-0.217
			C813.643,560.102,814.281,560.067,814.928,560.067 M815.372,575.815c0.548,0,1.063-0.011,1.565-0.033
			c0.497-0.022,0.898-0.061,1.197-0.107v-4.083c-0.227-0.049-0.559-0.095-1.01-0.144c-0.447-0.05-0.859-0.07-1.234-0.07
			c-0.519,0-1.012,0.029-1.469,0.091c-0.456,0.06-0.862,0.178-1.211,0.344c-0.35,0.168-0.617,0.398-0.82,0.691
			c-0.195,0.284-0.3,0.646-0.3,1.073c0,0.847,0.3,1.434,0.877,1.758C813.553,575.651,814.355,575.815,815.372,575.815"/>
		<path fill="#FCB61A" d="M845.785,578.963c-0.498,0.142-1.062,0.287-1.717,0.418c-0.648,0.13-1.32,0.244-2.031,0.34
			c-0.707,0.1-1.428,0.177-2.162,0.236c-0.734,0.062-1.436,0.089-2.105,0.089c-1.612,0-3.057-0.226-4.322-0.688
			c-1.267-0.454-2.335-1.108-3.199-1.968c-0.873-0.855-1.541-1.889-1.995-3.102c-0.454-1.214-0.692-2.584-0.692-4.101
			c0-1.538,0.199-2.927,0.597-4.17c0.401-1.244,0.972-2.294,1.72-3.163c0.744-0.867,1.655-1.529,2.738-1.983
			c1.079-0.46,2.317-0.687,3.707-0.687c0.773,0,1.459,0.067,2.066,0.219c0.617,0.144,1.227,0.347,1.85,0.611v-5.676l5.549-0.868
			v24.494h-0.002V578.963L845.785,578.963z M833.22,569.931c0,1.657,0.39,2.998,1.157,4.008c0.77,1.009,1.912,1.516,3.426,1.516
			c0.502,0,0.961-0.019,1.381-0.05c0.426-0.043,0.771-0.082,1.047-0.128v-9.789c-0.352-0.223-0.797-0.398-1.363-0.546
			c-0.559-0.142-1.123-0.218-1.695-0.218C834.534,564.726,833.22,566.462,833.22,569.931"/>
		<path fill="#FCB61A" d="M856.629,575.708c1.02,0,1.736-0.096,2.164-0.284c0.422-0.192,0.637-0.568,0.637-1.122
			c0-0.43-0.279-0.813-0.822-1.137c-0.553-0.328-1.377-0.697-2.496-1.104c-0.873-0.312-1.66-0.635-2.371-0.975
			c-0.705-0.34-1.307-0.742-1.803-1.208c-0.502-0.468-0.879-1.026-1.156-1.676c-0.275-0.655-0.414-1.438-0.414-2.348
			c0-1.782,0.688-3.192,2.053-4.229c1.365-1.035,3.244-1.555,5.623-1.555c1.195,0,2.334,0.103,3.43,0.307
			c1.09,0.206,1.971,0.432,2.611,0.671l-0.971,4.191c-0.645-0.218-1.35-0.41-2.105-0.577s-1.605-0.257-2.549-0.257
			c-1.74,0-2.613,0.472-2.613,1.413c0,0.216,0.037,0.406,0.113,0.576c0.068,0.168,0.223,0.332,0.447,0.486
			c0.227,0.152,0.529,0.325,0.918,0.507c0.383,0.184,0.871,0.384,1.469,0.601c1.219,0.436,2.221,0.864,3.016,1.291
			c0.793,0.425,1.418,0.883,1.885,1.373c0.457,0.493,0.781,1.042,0.963,1.641c0.188,0.604,0.277,1.302,0.277,2.093
			c0,1.875-0.73,3.291-2.176,4.249c-1.453,0.964-3.504,1.443-6.17,1.443c-1.74,0-3.189-0.142-4.336-0.426
			c-1.164-0.295-1.965-0.532-2.406-0.727l0.932-4.372c0.941,0.356,1.91,0.644,2.908,0.852
			C854.676,575.607,855.66,575.708,856.629,575.708"/>
	</g>
</g>
</svg>
