<?xml version="1.0" encoding="utf-8"?>
<!-- Generator: Adobe Illustrator 16.0.4, SVG Export Plug-In . SVG Version: 6.00 Build 0)  -->
<!DOCTYPE svg PUBLIC "-//W3C//DTD SVG 1.1//EN" "http://www.w3.org/Graphics/SVG/1.1/DTD/svg11.dtd">
<svg version="1.1"
	 id="svg2" xmlns:svg="http://www.w3.org/2000/svg" xmlns:sodipodi="http://sodipodi.sourceforge.net/DTD/sodipodi-0.dtd" xmlns:inkscape="http://www.inkscape.org/namespaces/inkscape" xmlns:rdf="http://www.w3.org/1999/02/22-rdf-syntax-ns#" xmlns:cc="http://web.resource.org/cc/" xmlns:dc="http://purl.org/dc/elements/1.1/" sodipodi:docname="Football_pitch_metric.svg" sodipodi:version="0.32" sodipodi:docbase="C:\Documents and Settings\Administrator\Desktop" inkscape:version="0.44"
	 xmlns="http://www.w3.org/2000/svg" xmlns:xlink="http://www.w3.org/1999/xlink" x="0px" y="0px" width="909px" height="668px"
	 viewBox="0 0 909 668" enable-background="new 0 0 909 668" xml:space="preserve">
<rect fill="#006241" width="909" height="668"/>
<path id="path3095" sodipodi:nodetypes="cccc" fill="#FFFFFF" stroke="#006241" stroke-width="4" d="M18.863,359.893H6.933V306.51
	h11.686"/>
<path id="path3095_1_" sodipodi:nodetypes="cccc" fill="#FFFFFF" stroke="#006241" stroke-width="4" d="M889.29,304.732h11.93
	v53.383h-11.686"/>
<sodipodi:namedview  inkscape:window-width="1024" inkscape:document-units="px" inkscape:pageopacity="0.0" inkscape:pageshadow="2" inkscape:window-height="712" inkscape:window-x="212" inkscape:window-y="205" inkscape:current-layer="layer2" inkscape:guide-points="true" inkscape:guide-bbox="true" showguides="true" inkscape:cy="380.72301" inkscape:cx="521.66264" inkscape:zoom="1" showgrid="true" bordercolor="#666666" pagecolor="#ffffff" borderopacity="1.0" id="base">
	</sodipodi:namedview>
<path id="path3117" sodipodi:nodetypes="cs" fill="none" stroke="#FFFFFF" stroke-width="4" d="M889.608,649.707
	c0,0-8.098,1.932-10.103,10.396"/>
<path id="path3120" sodipodi:nodetypes="cs" fill="none" stroke="#FFFFFF" stroke-width="4" d="M880.15,5.561
	c0,0,1.931,8.095,10.396,10.1"/>
<path id="path3122" sodipodi:nodetypes="cs" fill="none" stroke="#FFFFFF" stroke-width="4" d="M18.492,16.446
	c0,0,8.094-1.932,10.099-10.396"/>
<path id="path2194" fill="none" stroke="#FFFFFF" stroke-width="4" d="M889.921,6.065v654.271l-870.535-1.369L18.017,6.066
	L889.921,6.065L889.921,6.065z"/>
<path id="path2212" sodipodi:cx="336.13116" sodipodi:cy="254.39229" sodipodi:type="arc" sodipodi:ry="35.526058" sodipodi:rx="34.842865" fill="none" stroke="#FFFFFF" stroke-width="4" stroke-linejoin="round" d="
	M390.018,333.5c-0.006-36.718,29.757-66.486,66.475-66.493c36.718-0.006,66.484,29.755,66.493,66.476c0,0.006,0,0.013,0,0.02
	c0.006,36.718-29.759,66.488-66.476,66.493c-36.719,0.006-66.488-29.755-66.494-66.473
	C390.018,333.513,390.018,333.507,390.018,333.5z"/>
<path id="path3091" sodipodi:nodetypes="cccc" fill="none" stroke="#FFFFFF" stroke-width="4" d="M18.475,185.895l118.88,0.163
	v291.549H19.027"/>
<path id="path3093" sodipodi:nodetypes="cccc" fill="none" stroke="#FFFFFF" stroke-width="4" d="M18.272,400.955h41.062
	l-1.368-134.139H18.474"/>
<path id="path3097" sodipodi:nodetypes="cc" fill="none" stroke="#FFFFFF" stroke-width="4" d="M137.619,281.157
	c38.326,22.242,36.794,81.534-0.163,103.435"/>
<path id="path3107" fill="#006241" stroke="#FFFFFF" stroke-width="4" d="M456.5,660.336V7.434l0,0"/>
<path id="path3124" sodipodi:nodetypes="cs" fill="none" stroke="#FFFFFF" stroke-width="4" d="M30.699,658.471
	c0,0-1.931-8.095-10.396-10.1"/>
<path id="path3126" sodipodi:cx="513.85535" sodipodi:cy="253.57072" sodipodi:type="arc" sodipodi:ry="1.3453845" sodipodi:rx="1.0599999" fill="#FFFFFF" stroke="#FFFFFF" stroke-width="4" stroke-miterlimit="10" d="
	M91.3,333.5c-0.005-2.209,1.782-4.004,3.991-4.009c2.209-0.005,4.004,1.782,4.009,3.991c0,0.006,0,0.012,0,0.018
	c0.005,2.209-1.782,4.004-3.991,4.008c-2.21,0.006-4.004-1.781-4.009-3.991C91.3,333.511,91.3,333.506,91.3,333.5z"/>
<path id="path3130" sodipodi:cx="336.13116" sodipodi:cy="253.02589" sodipodi:type="arc" sodipodi:ry="1.3663868" sodipodi:rx="1.3663868" fill="#FFFFFF" stroke="#006241" stroke-width="4" stroke-miterlimit="10" d="
	M452.5,333.5c0-2.209,1.791-4,4-4c2.21,0,4.001,1.791,4.001,4s-1.791,4-4.001,4C454.291,337.5,452.5,335.709,452.5,333.5
	L452.5,333.5z"/>
<g id="Layer_2_1_" opacity="0.2">
	<path fill="#006241" d="M272.474,26.303c0-2.949-2.399-5.348-5.345-5.348H107.918c-4.076,0-8.123-0.961-11.75-2.818
		c-3.093-1.581-6.596-2.476-10.304-2.476C73.336,15.66,63.142,25.851,63.142,38.38c0,12.529,10.19,22.719,22.722,22.719
		c3.565,0,6.944-0.83,9.95-2.302c3.553-1.745,7.403-2.624,11.361-2.624h159.949c2.945,0,5.345-2.402,5.345-5.348L272.474,26.303
		L272.474,26.303z"/>
	<path fill="#FFB819" d="M99.345,25.913l-0.091-0.439c-0.043-0.15-0.101-0.298-0.153-0.445c-0.103-0.296-0.276-0.569-0.429-0.845
		c-0.181-0.25-0.366-0.521-0.581-0.725l-0.33-0.313c-0.113-0.094-0.227-0.179-0.345-0.264c-0.234-0.182-0.467-0.305-0.707-0.445
		c-0.951-0.507-1.886-0.741-2.789-0.879c-0.9-0.132-1.772-0.164-2.62-0.135c-1.703,0.066-3.328,0.337-4.879,0.743
		c-0.773,0.202-1.53,0.43-2.266,0.699c-0.732,0.259-1.449,0.542-2.135,0.857c-2.752,1.238-5.116,2.852-6.849,4.577
		c-0.343,0.337-0.65,0.684-0.94,1.026c-2.699,2.635-4.376,6.3-4.376,10.36c0,7.986,6.496,14.483,14.478,14.483
		c7.985,0,14.481-6.5,14.481-14.483c0-2.621-0.708-5.073-1.929-7.193c0.007-0.011,0.018-0.02,0.028-0.032
		c0.879-1.105,1.795-2.351,2.306-4.165c0.056-0.24,0.111-0.473,0.15-0.722c0.026-0.265,0.063-0.519,0.052-0.796
		C99.411,26.487,99.414,26.216,99.345,25.913z M84.334,50.042c-5.712,0-10.359-4.649-10.359-10.358c0-4.39,2.746-8.142,6.607-9.646
		c0.663-0.189,1.312-0.295,1.882-0.25c0.567,0.024,1.046,0.186,1.497,0.452c0.054,0.036,0.113,0.062,0.173,0.102l0.153,0.134
		l0.171,0.121l0.153,0.158c0.216,0.191,0.389,0.462,0.59,0.709c0.092,0.141,0.176,0.278,0.265,0.418
		c0.091,0.136,0.15,0.304,0.237,0.448c0.174,0.293,0.282,0.629,0.425,0.941c0.255,0.647,0.464,1.306,0.632,1.935
		c0.111,0.312,0.16,0.624,0.237,0.917c0.079,0.296,0.159,0.578,0.209,0.852c0.112,0.542,0.246,1.023,0.319,1.425
		c0.077,0.402,0.169,0.721,0.214,0.941c0.053,0.22,0.094,0.338,0.094,0.338s0.052-0.108,0.142-0.317
		c0.089-0.208,0.232-0.511,0.376-0.909c0.162-0.396,0.286-0.886,0.447-1.457c0.092-0.283,0.127-0.595,0.193-0.923
		c0.06-0.331,0.122-0.678,0.15-1.049c0.032-0.371,0.07-0.757,0.066-1.164c-0.01-0.409,0-0.832-0.056-1.28
		c-0.052-0.445-0.11-0.903-0.241-1.377c-0.059-0.311-0.164-0.622-0.283-0.936c1.563,0.716,2.915,1.811,3.946,3.167
		c-0.042,0.064-0.091,0.132-0.134,0.193c-0.651,0.907-1.279,1.732-1.837,2.461c-0.576,0.734-1.073,1.375-1.482,1.9
		c-0.412,0.536-0.736,0.956-0.956,1.241c-0.22,0.293-0.335,0.449-0.335,0.449S88,39.58,88.317,39.406
		c0.311-0.187,0.789-0.433,1.357-0.805c0.576-0.358,1.263-0.812,2.034-1.37c0.654-0.478,1.375-1.036,2.121-1.674
		c0.551,1.263,0.858,2.654,0.858,4.121C94.694,45.393,90.044,50.042,84.334,50.042z M88.566,25.832
		c0.961-0.155,1.924-0.268,2.864-0.291c0.67-0.029,1.322-0.011,1.922,0.067c0.593,0.084,1.153,0.202,1.526,0.388
		c0.083,0.048,0.193,0.085,0.253,0.135l0.11,0.066c0.024,0.022,0.047,0.046,0.077,0.068c0.066,0.037,0.08,0.082,0.136,0.114
		c0.014,0.048,0.073,0.075,0.087,0.127c0.104,0.173,0.174,0.519,0.108,1.003c-0.105,0.693-0.408,1.479-0.789,2.251
		C93.156,27.953,91.003,26.576,88.566,25.832z"/>
	<g>
		<path fill="#FCB61A" d="M113.2,39.109c-0.366,1.345-0.755,2.683-1.164,4.012c-0.412,1.328-0.851,2.664-1.305,4.014h-3.177
			c-0.333-0.745-0.689-1.633-1.076-2.66c-0.38-1.024-0.781-2.147-1.193-3.359c-0.41-1.212-0.834-2.497-1.263-3.849
			c-0.436-1.358-0.848-2.723-1.252-4.109h4.305c0.143,0.638,0.307,1.334,0.483,2.083c0.176,0.755,0.355,1.531,0.553,2.33
			c0.19,0.796,0.394,1.597,0.607,2.403c0.209,0.806,0.426,1.584,0.646,2.325c0.237-0.78,0.471-1.579,0.701-2.393
			c0.223-0.813,0.447-1.616,0.656-2.401c0.213-0.788,0.41-1.551,0.604-2.284c0.192-0.738,0.359-1.424,0.51-2.06h2.958
			c0.147,0.636,0.311,1.324,0.49,2.06c0.185,0.732,0.377,1.497,0.578,2.284c0.199,0.786,0.412,1.59,0.629,2.401
			c0.22,0.813,0.447,1.61,0.689,2.393c0.22-0.743,0.44-1.52,0.663-2.325c0.22-0.806,0.424-1.603,0.618-2.403
			c0.195-0.797,0.38-1.574,0.556-2.33c0.176-0.749,0.337-1.445,0.483-2.083h4.246c-0.401,1.384-0.82,2.751-1.249,4.109
			c-0.431,1.354-0.854,2.639-1.266,3.849c-0.408,1.212-0.816,2.335-1.211,3.359c-0.394,1.029-0.757,1.916-1.083,2.66h-3.176
			c-0.462-1.348-0.909-2.686-1.347-4.014C113.969,41.792,113.564,40.453,113.2,39.109"/>
		<polygon fill="#FCB61A" points="129.989,47.134 125.908,47.134 125.908,33.874 129.989,33.156 		"/>
		<path fill="#FCB61A" d="M133.825,33.635c0.696-0.193,1.589-0.377,2.688-0.545c1.092-0.169,2.247-0.253,3.454-0.253
			c1.226,0,2.243,0.157,3.06,0.465c0.809,0.311,1.455,0.749,1.933,1.313c0.476,0.568,0.809,1.238,1.012,2.019
			c0.201,0.78,0.303,1.646,0.303,2.606v7.89h-4.085v-7.41c0-1.277-0.176-2.179-0.52-2.709c-0.349-0.532-1-0.797-1.947-0.797
			c-0.296,0-0.604,0.015-0.935,0.038c-0.328,0.029-0.621,0.059-0.877,0.093v10.787h-4.082L133.825,33.635L133.825,33.635z"/>
		<path fill="#FCB61A" d="M149.971,33.635c0.696-0.193,1.593-0.377,2.687-0.545c1.094-0.169,2.249-0.253,3.456-0.253
			c1.226,0,2.243,0.157,3.056,0.465c0.813,0.311,1.458,0.749,1.933,1.313c0.476,0.568,0.813,1.238,1.015,2.019
			c0.195,0.78,0.3,1.646,0.3,2.606v7.89h-4.082v-7.41c0-1.277-0.176-2.179-0.52-2.709c-0.349-0.532-1.005-0.797-1.95-0.797
			c-0.293,0-0.602,0.015-0.932,0.038c-0.328,0.029-0.621,0.059-0.874,0.093v10.787h-4.085L149.971,33.635L149.971,33.635z"/>
		<path fill="#FCB61A" d="M165.428,40.255c0-1.24,0.197-2.327,0.589-3.256c0.396-0.931,0.911-1.707,1.551-2.325
			c0.635-0.619,1.373-1.089,2.203-1.406c0.834-0.319,1.686-0.479,2.563-0.479c2.047,0,3.661,0.61,4.851,1.822
			c1.189,1.213,1.781,3,1.781,5.353c0,0.23-0.007,0.483-0.023,0.761c-0.023,0.275-0.04,0.513-0.057,0.729h-9.264
			c0.091,0.813,0.484,1.458,1.175,1.94c0.697,0.479,1.624,0.717,2.795,0.717c0.753,0,1.483-0.068,2.205-0.201
			c0.719-0.131,1.309-0.293,1.766-0.492l0.547,3.216c-0.215,0.108-0.506,0.213-0.873,0.318c-0.366,0.108-0.776,0.197-1.225,0.281
			c-0.444,0.082-0.927,0.145-1.438,0.195c-0.511,0.054-1.021,0.079-1.532,0.079c-1.299,0-2.42-0.185-3.387-0.555
			c-0.957-0.374-1.752-0.883-2.384-1.528s-1.095-1.413-1.399-2.295C165.577,42.231,165.428,41.277,165.428,40.255 M175.024,38.737
			c-0.018-0.336-0.078-0.663-0.18-0.982c-0.099-0.32-0.257-0.606-0.464-0.854c-0.211-0.247-0.479-0.449-0.797-0.613
			c-0.321-0.159-0.713-0.237-1.19-0.237c-0.457,0-0.849,0.075-1.176,0.227c-0.329,0.148-0.604,0.35-0.823,0.595
			c-0.217,0.249-0.389,0.535-0.506,0.862c-0.118,0.331-0.204,0.661-0.261,0.999L175.024,38.737L175.024,38.737z"/>
		<path fill="#FCB61A" d="M190.812,36.669c-0.37-0.092-0.794-0.186-1.292-0.285c-0.493-0.097-1.021-0.141-1.591-0.141
			c-0.257,0-0.559,0.02-0.918,0.064c-0.359,0.043-0.629,0.092-0.808,0.148v10.678h-4.089v-13.23
			c0.731-0.248,1.597-0.482,2.594-0.704c1-0.223,2.108-0.333,3.33-0.333c0.221,0,0.482,0.015,0.791,0.038
			c0.317,0.029,0.627,0.063,0.934,0.109c0.311,0.043,0.624,0.098,0.931,0.161c0.314,0.06,0.573,0.135,0.791,0.225L190.812,36.669z"
			/>
		<path fill="#FCB61A" d="M193.691,47.131V29.306l4.083-0.637v4.545c0.274-0.09,0.628-0.173,1.058-0.254
			c0.43-0.078,0.846-0.119,1.247-0.119c1.167,0,2.139,0.157,2.919,0.466c0.777,0.311,1.396,0.748,1.863,1.313
			c0.465,0.569,0.798,1.239,0.985,2.02c0.193,0.78,0.292,1.646,0.292,2.606v7.886h-4.085v-7.408c0-1.275-0.169-2.177-0.505-2.708
			c-0.338-0.532-0.966-0.796-1.88-0.796c-0.364,0-0.707,0.03-1.029,0.091c-0.321,0.063-0.605,0.13-0.861,0.2v10.626h-4.083
			L193.691,47.131L193.691,47.131L193.691,47.131z"/>
		<path fill="#FCB61A" d="M209.151,40.255c0-1.24,0.194-2.327,0.589-3.256c0.387-0.931,0.907-1.707,1.543-2.325
			c0.641-0.619,1.377-1.089,2.204-1.406c0.836-0.319,1.687-0.479,2.568-0.479c2.046,0,3.663,0.61,4.853,1.822
			c1.186,1.213,1.783,3,1.783,5.353c0,0.23-0.015,0.483-0.03,0.761c-0.017,0.275-0.038,0.513-0.058,0.729h-9.264
			c0.092,0.813,0.485,1.458,1.179,1.94c0.693,0.479,1.626,0.717,2.794,0.717c0.747,0,1.484-0.068,2.206-0.201
			c0.72-0.131,1.31-0.293,1.767-0.492l0.548,3.216c-0.22,0.108-0.509,0.213-0.872,0.318c-0.362,0.108-0.775,0.197-1.226,0.281
			c-0.446,0.079-0.929,0.145-1.437,0.195c-0.513,0.054-1.026,0.079-1.535,0.079c-1.301,0-2.424-0.185-3.386-0.555
			c-0.959-0.374-1.75-0.883-2.383-1.528c-0.633-0.645-1.095-1.413-1.396-2.295C209.298,42.231,209.151,41.277,209.151,40.255
			 M218.745,38.737c-0.02-0.336-0.08-0.663-0.184-0.982c-0.104-0.32-0.257-0.606-0.463-0.854c-0.214-0.247-0.478-0.449-0.794-0.613
			c-0.326-0.159-0.718-0.237-1.193-0.237c-0.458,0-0.855,0.075-1.179,0.227c-0.332,0.148-0.602,0.35-0.821,0.595
			c-0.224,0.249-0.391,0.535-0.507,0.862c-0.119,0.331-0.199,0.661-0.261,0.999L218.745,38.737L218.745,38.737z"/>
		<path fill="#FCB61A" d="M231.025,32.785c1.204,0,2.204,0.132,3.014,0.4c0.803,0.265,1.447,0.646,1.931,1.146
			c0.484,0.495,0.827,1.094,1.025,1.802c0.199,0.709,0.305,1.5,0.305,2.367v8.233c-0.583,0.125-1.4,0.269-2.441,0.439
			c-1.04,0.167-2.299,0.253-3.78,0.253c-0.931,0-1.775-0.079-2.54-0.239c-0.754-0.16-1.41-0.42-1.957-0.783
			c-0.549-0.366-0.972-0.839-1.263-1.419c-0.289-0.586-0.437-1.307-0.437-2.154c0-0.815,0.169-1.506,0.505-2.076
			c0.342-0.565,0.792-1.015,1.36-1.354c0.562-0.336,1.217-0.579,1.947-0.732c0.729-0.148,1.489-0.224,2.272-0.224
			c0.532,0,1.002,0.025,1.413,0.066c0.409,0.046,0.743,0.105,1.002,0.174V38.31c0-0.67-0.213-1.211-0.632-1.619
			c-0.419-0.408-1.154-0.61-2.195-0.61c-0.697,0-1.379,0.046-2.052,0.146c-0.677,0.096-1.259,0.233-1.75,0.409l-0.523-3.187
			c0.241-0.072,0.539-0.147,0.892-0.227c0.353-0.077,0.743-0.15,1.163-0.211c0.419-0.062,0.866-0.111,1.329-0.159
			C230.08,32.81,230.55,32.785,231.025,32.785 M231.352,44.367c0.403,0,0.782-0.007,1.152-0.024c0.365-0.017,0.66-0.045,0.88-0.08
			v-3.002c-0.166-0.037-0.411-0.07-0.743-0.105c-0.329-0.037-0.632-0.051-0.907-0.051c-0.382,0-0.745,0.021-1.081,0.066
			c-0.335,0.044-0.634,0.131-0.89,0.253c-0.257,0.124-0.454,0.293-0.604,0.508c-0.143,0.209-0.22,0.476-0.22,0.79
			c0,0.623,0.22,1.054,0.645,1.292C230.014,44.246,230.605,44.367,231.352,44.367"/>
		<path fill="#FCB61A" d="M253.719,46.682c-0.366,0.104-0.782,0.211-1.263,0.307c-0.477,0.096-0.97,0.18-1.493,0.25
			c-0.52,0.073-1.051,0.13-1.59,0.174c-0.54,0.045-1.056,0.066-1.549,0.066c-1.186,0-2.248-0.167-3.179-0.506
			c-0.931-0.335-1.717-0.816-2.353-1.448c-0.642-0.628-1.133-1.388-1.467-2.281s-0.509-1.9-0.509-3.016
			c0-1.13,0.147-2.152,0.439-3.066c0.295-0.915,0.714-1.688,1.265-2.326c0.547-0.638,1.217-1.125,2.013-1.459
			c0.794-0.338,1.705-0.505,2.727-0.505c0.568,0,1.073,0.05,1.52,0.161c0.453,0.105,0.902,0.255,1.359,0.45v-4.174l4.082-0.639
			v18.014h-0.002L253.719,46.682L253.719,46.682z M244.478,40.039c0,1.219,0.286,2.205,0.851,2.948
			c0.566,0.741,1.406,1.115,2.519,1.115c0.37,0,0.707-0.014,1.016-0.037c0.313-0.032,0.567-0.061,0.77-0.094v-7.2
			c-0.259-0.163-0.586-0.293-1.002-0.401c-0.411-0.105-0.827-0.16-1.247-0.16C245.445,36.211,244.478,37.488,244.478,40.039"/>
		<path fill="#FCB61A" d="M261.694,44.288c0.75,0,1.277-0.07,1.592-0.209c0.309-0.141,0.468-0.418,0.468-0.825
			c0-0.316-0.205-0.599-0.605-0.836c-0.407-0.241-1.013-0.513-1.836-0.812c-0.642-0.23-1.22-0.468-1.744-0.717
			c-0.518-0.25-0.961-0.546-1.326-0.889c-0.368-0.344-0.646-0.755-0.85-1.232c-0.202-0.482-0.304-1.057-0.304-1.727
			c0-1.31,0.506-2.348,1.51-3.11c1.004-0.761,2.385-1.143,4.135-1.143c0.879,0,1.716,0.075,2.522,0.225
			c0.802,0.152,1.449,0.318,1.921,0.494l-0.714,3.083c-0.475-0.161-0.993-0.302-1.549-0.425c-0.555-0.123-1.18-0.188-1.874-0.188
			c-1.28,0-1.922,0.346-1.922,1.038c0,0.159,0.028,0.3,0.083,0.424c0.05,0.124,0.164,0.245,0.329,0.358
			c0.166,0.112,0.389,0.239,0.675,0.373c0.282,0.135,0.641,0.282,1.081,0.441c0.895,0.321,1.633,0.636,2.218,0.95
			c0.583,0.312,1.043,0.649,1.385,1.01c0.337,0.363,0.575,0.766,0.708,1.207c0.139,0.443,0.205,0.956,0.205,1.539
			c0,1.378-0.538,2.419-1.601,3.125c-1.068,0.708-2.577,1.061-4.537,1.061c-1.28,0-2.345-0.104-3.189-0.314
			c-0.856-0.216-1.445-0.391-1.769-0.534l0.684-3.216c0.693,0.263,1.406,0.474,2.139,0.628
			C260.258,44.214,260.982,44.288,261.694,44.288"/>
	</g>
</g>
<g id="Layer_2_2_" opacity="0.2">
	<path fill="#006241" d="M866.489,620.108c0-2.948-2.398-5.35-5.345-5.35H701.933c-4.075,0-8.123-0.961-11.749-2.816
		c-3.094-1.581-6.596-2.477-10.305-2.477c-12.527-0.002-22.723,10.188-22.723,22.719c0,12.527,10.189,22.721,22.723,22.721
		c3.564,0,6.943-0.83,9.949-2.304c3.554-1.744,7.402-2.624,11.359-2.624h159.95c2.945,0,5.345-2.4,5.345-5.349L866.489,620.108
		L866.489,620.108z"/>
	<path fill="#FFB819" d="M693.359,619.718l-0.092-0.438c-0.044-0.149-0.101-0.298-0.152-0.444c-0.104-0.297-0.274-0.568-0.431-0.846
		c-0.181-0.25-0.364-0.521-0.579-0.726l-0.33-0.312c-0.112-0.094-0.228-0.179-0.347-0.266c-0.232-0.183-0.467-0.305-0.706-0.443
		c-0.949-0.507-1.886-0.741-2.789-0.879c-0.899-0.132-1.771-0.164-2.619-0.137c-1.703,0.065-3.328,0.339-4.88,0.744
		c-0.772,0.201-1.528,0.431-2.266,0.697c-0.732,0.26-1.449,0.542-2.136,0.856c-2.753,1.237-5.116,2.853-6.851,4.577
		c-0.343,0.337-0.649,0.684-0.938,1.024c-2.699,2.636-4.378,6.301-4.378,10.36c0,7.986,6.496,14.482,14.479,14.482
		c7.985,0,14.48-6.499,14.48-14.482c0-2.62-0.707-5.073-1.93-7.192c0.007-0.012,0.02-0.021,0.027-0.032
		c0.879-1.104,1.795-2.352,2.307-4.164c0.057-0.239,0.111-0.476,0.149-0.724c0.025-0.265,0.062-0.519,0.052-0.797
		C693.426,620.293,693.43,620.021,693.359,619.718z M678.35,643.848c-5.713,0-10.358-4.648-10.358-10.357
		c0-4.391,2.745-8.143,6.606-9.646c0.662-0.188,1.312-0.295,1.883-0.25c0.566,0.023,1.046,0.187,1.496,0.45
		c0.055,0.037,0.113,0.063,0.173,0.104l0.153,0.134l0.17,0.121l0.154,0.157c0.216,0.189,0.389,0.463,0.59,0.709
		c0.092,0.142,0.176,0.276,0.266,0.419c0.091,0.136,0.148,0.303,0.236,0.446c0.174,0.293,0.282,0.629,0.426,0.94
		c0.255,0.646,0.465,1.307,0.632,1.936c0.11,0.312,0.159,0.624,0.236,0.917c0.079,0.297,0.159,0.578,0.21,0.853
		c0.111,0.543,0.246,1.022,0.318,1.426c0.077,0.401,0.17,0.722,0.215,0.94c0.053,0.221,0.094,0.339,0.094,0.339
		s0.054-0.108,0.145-0.317c0.088-0.207,0.229-0.51,0.376-0.907c0.161-0.396,0.285-0.887,0.445-1.456
		c0.094-0.282,0.128-0.597,0.192-0.925c0.062-0.33,0.123-0.678,0.15-1.049c0.03-0.371,0.068-0.757,0.064-1.164
		c-0.01-0.408,0-0.832-0.056-1.279c-0.053-0.443-0.11-0.902-0.241-1.379c-0.06-0.311-0.164-0.62-0.282-0.936
		c1.563,0.717,2.915,1.811,3.946,3.167c-0.043,0.062-0.092,0.132-0.135,0.191c-0.65,0.908-1.279,1.731-1.837,2.463
		c-0.575,0.732-1.073,1.375-1.482,1.898c-0.411,0.536-0.735,0.956-0.956,1.241c-0.22,0.293-0.335,0.449-0.335,0.449
		s0.171-0.099,0.488-0.272c0.311-0.186,0.788-0.434,1.356-0.805c0.574-0.357,1.263-0.812,2.033-1.37
		c0.654-0.479,1.374-1.036,2.121-1.674c0.551,1.263,0.856,2.653,0.856,4.121C688.709,639.198,684.059,643.848,678.35,643.848z
		 M682.581,619.637c0.961-0.154,1.924-0.269,2.863-0.291c0.67-0.027,1.321-0.012,1.922,0.067c0.595,0.084,1.152,0.201,1.526,0.389
		c0.083,0.048,0.193,0.085,0.252,0.136l0.11,0.064c0.023,0.023,0.047,0.047,0.077,0.068c0.064,0.037,0.08,0.082,0.136,0.113
		c0.015,0.049,0.073,0.073,0.087,0.127c0.104,0.174,0.174,0.521,0.108,1.004c-0.104,0.692-0.408,1.479-0.788,2.251
		C687.17,621.759,685.018,620.381,682.581,619.637z"/>
	<g>
		<path fill="#FCB61A" d="M707.215,632.914c-0.366,1.346-0.756,2.684-1.164,4.013c-0.411,1.327-0.852,2.663-1.305,4.015h-3.177
			c-0.334-0.745-0.688-1.634-1.075-2.66c-0.382-1.023-0.781-2.146-1.193-3.358c-0.41-1.213-0.834-2.497-1.264-3.851
			c-0.438-1.356-0.849-2.724-1.252-4.107h4.305c0.145,0.639,0.309,1.335,0.483,2.083c0.177,0.756,0.354,1.53,0.554,2.33
			c0.188,0.796,0.395,1.597,0.605,2.401c0.21,0.806,0.426,1.584,0.646,2.325c0.236-0.779,0.471-1.578,0.701-2.394
			c0.223-0.812,0.446-1.616,0.655-2.4c0.213-0.788,0.409-1.552,0.604-2.285c0.19-0.737,0.358-1.424,0.51-2.061h2.957
			c0.146,0.637,0.312,1.323,0.49,2.061c0.186,0.731,0.377,1.497,0.578,2.285c0.198,0.784,0.412,1.589,0.629,2.4
			c0.221,0.813,0.447,1.608,0.688,2.394c0.222-0.743,0.438-1.521,0.663-2.325c0.221-0.807,0.424-1.604,0.617-2.401
			c0.195-0.799,0.379-1.574,0.557-2.33c0.178-0.748,0.338-1.444,0.482-2.083h4.246c-0.402,1.384-0.82,2.751-1.25,4.107
			c-0.43,1.354-0.854,2.64-1.267,3.851c-0.407,1.212-0.815,2.335-1.211,3.358c-0.396,1.028-0.758,1.915-1.083,2.66h-3.178
			c-0.462-1.35-0.907-2.688-1.346-4.015C707.984,635.597,707.579,634.259,707.215,632.914"/>
		<polygon fill="#FCB61A" points="724.004,640.939 719.922,640.939 719.922,627.678 724.004,626.963 		"/>
		<path fill="#FCB61A" d="M727.84,627.441c0.695-0.193,1.59-0.377,2.688-0.545c1.094-0.171,2.247-0.255,3.455-0.255
			c1.227,0,2.241,0.156,3.06,0.467c0.811,0.311,1.455,0.749,1.934,1.312c0.478,0.568,0.811,1.238,1.013,2.021
			c0.2,0.779,0.304,1.646,0.304,2.604v7.892h-4.085v-7.409c0-1.277-0.178-2.18-0.521-2.709c-0.349-0.532-0.999-0.798-1.946-0.798
			c-0.296,0-0.604,0.016-0.936,0.037c-0.327,0.027-0.62,0.061-0.877,0.094v10.788h-4.082L727.84,627.441L727.84,627.441z"/>
		<path fill="#FCB61A" d="M743.985,627.441c0.695-0.193,1.594-0.377,2.688-0.545c1.094-0.171,2.248-0.255,3.455-0.255
			c1.228,0,2.244,0.156,3.057,0.467s1.458,0.749,1.934,1.312c0.477,0.568,0.812,1.238,1.016,2.021
			c0.195,0.779,0.301,1.646,0.301,2.604v7.892h-4.081v-7.409c0-1.277-0.177-2.18-0.521-2.709c-0.351-0.532-1.005-0.798-1.95-0.798
			c-0.293,0-0.604,0.016-0.933,0.037c-0.327,0.027-0.62,0.061-0.873,0.094v10.788h-4.086L743.985,627.441L743.985,627.441z"/>
		<path fill="#FCB61A" d="M759.442,634.06c0-1.239,0.195-2.326,0.589-3.255c0.396-0.933,0.911-1.707,1.552-2.326
			c0.635-0.617,1.373-1.089,2.204-1.405c0.834-0.318,1.686-0.479,2.562-0.479c2.048,0,3.662,0.609,4.853,1.821
			c1.188,1.213,1.781,3,1.781,5.354c0,0.229-0.009,0.482-0.022,0.762c-0.022,0.274-0.04,0.513-0.058,0.729h-9.265
			c0.091,0.812,0.484,1.458,1.175,1.938c0.696,0.479,1.625,0.717,2.796,0.717c0.753,0,1.482-0.067,2.205-0.2
			c0.72-0.132,1.311-0.293,1.768-0.491l0.547,3.216c-0.215,0.109-0.506,0.214-0.873,0.318c-0.366,0.106-0.774,0.196-1.226,0.28
			c-0.443,0.082-0.928,0.146-1.438,0.195c-0.512,0.054-1.021,0.077-1.532,0.077c-1.3,0-2.421-0.187-3.388-0.555
			c-0.956-0.373-1.752-0.884-2.384-1.528c-0.631-0.646-1.096-1.413-1.398-2.296C759.592,636.036,759.442,635.082,759.442,634.06
			 M769.038,632.542c-0.019-0.335-0.078-0.663-0.181-0.979c-0.1-0.32-0.259-0.606-0.466-0.854c-0.211-0.248-0.479-0.448-0.797-0.612
			c-0.319-0.158-0.713-0.237-1.188-0.237c-0.457,0-0.85,0.075-1.177,0.228c-0.329,0.147-0.604,0.352-0.822,0.596
			c-0.218,0.248-0.39,0.535-0.507,0.861c-0.117,0.331-0.203,0.661-0.262,0.999H769.038L769.038,632.542z"/>
		<path fill="#FCB61A" d="M784.826,630.475c-0.369-0.092-0.795-0.187-1.291-0.284c-0.493-0.097-1.021-0.142-1.592-0.142
			c-0.259,0-0.56,0.021-0.918,0.063s-0.63,0.092-0.81,0.147v10.678h-4.088v-13.229c0.729-0.247,1.597-0.481,2.594-0.703
			c1-0.225,2.107-0.333,3.33-0.333c0.222,0,0.481,0.016,0.791,0.037c0.315,0.028,0.627,0.062,0.935,0.109
			c0.312,0.044,0.623,0.1,0.932,0.16c0.312,0.062,0.572,0.136,0.791,0.226L784.826,630.475z"/>
		<path fill="#FCB61A" d="M787.706,640.938v-17.825l4.084-0.638v4.545c0.271-0.09,0.628-0.174,1.057-0.254
			c0.432-0.078,0.848-0.119,1.247-0.119c1.167,0,2.14,0.156,2.919,0.467c0.777,0.312,1.396,0.748,1.863,1.312
			c0.465,0.568,0.798,1.238,0.984,2.021c0.191,0.78,0.292,1.646,0.292,2.605v7.888h-4.086v-7.408c0-1.276-0.17-2.179-0.506-2.708
			c-0.339-0.531-0.966-0.797-1.88-0.797c-0.363,0-0.707,0.029-1.028,0.092c-0.319,0.062-0.604,0.129-0.859,0.198v10.627h-4.083
			L787.706,640.938L787.706,640.938L787.706,640.938z"/>
		<path fill="#FCB61A" d="M803.166,634.06c0-1.239,0.193-2.326,0.589-3.255c0.388-0.933,0.908-1.707,1.543-2.326
			c0.643-0.617,1.378-1.089,2.205-1.405c0.836-0.318,1.688-0.479,2.566-0.479c2.046,0,3.663,0.609,4.854,1.821
			c1.187,1.213,1.783,3,1.783,5.354c0,0.229-0.017,0.482-0.031,0.762c-0.016,0.274-0.037,0.513-0.057,0.729h-9.265
			c0.092,0.812,0.483,1.458,1.18,1.938c0.691,0.479,1.626,0.717,2.794,0.717c0.745,0,1.482-0.067,2.205-0.2
			c0.721-0.132,1.311-0.293,1.768-0.491l0.549,3.216c-0.221,0.109-0.51,0.214-0.872,0.318c-0.36,0.106-0.774,0.196-1.226,0.28
			c-0.447,0.078-0.93,0.146-1.438,0.195c-0.515,0.054-1.024,0.077-1.534,0.077c-1.302,0-2.425-0.187-3.387-0.555
			c-0.961-0.373-1.75-0.884-2.384-1.528c-0.634-0.646-1.095-1.413-1.396-2.296C803.312,636.036,803.166,635.082,803.166,634.06
			 M812.76,632.542c-0.021-0.335-0.08-0.663-0.186-0.979c-0.104-0.32-0.257-0.606-0.463-0.854c-0.213-0.248-0.479-0.448-0.794-0.612
			c-0.325-0.158-0.719-0.237-1.192-0.237c-0.458,0-0.855,0.075-1.18,0.228c-0.332,0.147-0.603,0.352-0.821,0.596
			c-0.224,0.248-0.392,0.535-0.507,0.861c-0.118,0.331-0.198,0.661-0.262,0.999H812.76L812.76,632.542z"/>
		<path fill="#FCB61A" d="M825.04,626.591c1.202,0,2.204,0.132,3.014,0.398c0.804,0.267,1.447,0.646,1.932,1.146
			c0.483,0.493,0.827,1.094,1.023,1.801c0.199,0.709,0.307,1.5,0.307,2.367v8.232c-0.583,0.126-1.398,0.271-2.439,0.438
			c-1.041,0.169-2.301,0.255-3.781,0.255c-0.93,0-1.773-0.079-2.539-0.24c-0.754-0.16-1.409-0.42-1.957-0.783
			c-0.549-0.364-0.971-0.838-1.262-1.419c-0.289-0.587-0.438-1.307-0.438-2.153c0-0.814,0.169-1.507,0.505-2.076
			c0.343-0.564,0.792-1.016,1.359-1.354c0.562-0.336,1.217-0.579,1.946-0.731c0.729-0.147,1.488-0.225,2.271-0.225
			c0.531,0,1.003,0.025,1.412,0.066c0.409,0.046,0.743,0.104,1.002,0.174v-0.374c0-0.67-0.213-1.211-0.632-1.618
			c-0.419-0.406-1.152-0.609-2.194-0.609c-0.695,0-1.38,0.046-2.053,0.146c-0.678,0.096-1.26,0.232-1.751,0.408l-0.522-3.187
			c0.241-0.072,0.539-0.146,0.893-0.229c0.354-0.077,0.743-0.148,1.162-0.211c0.42-0.062,0.866-0.11,1.33-0.159
			C824.095,626.615,824.565,626.591,825.04,626.591 M825.367,638.172c0.402,0,0.782-0.007,1.151-0.022
			c0.365-0.019,0.66-0.046,0.881-0.08v-3.002c-0.166-0.036-0.41-0.069-0.743-0.106c-0.328-0.036-0.632-0.051-0.906-0.051
			c-0.383,0-0.744,0.021-1.08,0.065c-0.336,0.044-0.635,0.131-0.892,0.253c-0.258,0.124-0.452,0.293-0.604,0.509
			c-0.144,0.209-0.219,0.476-0.219,0.79c0,0.622,0.219,1.054,0.645,1.293C824.029,638.051,824.619,638.172,825.367,638.172"/>
		<path fill="#FCB61A" d="M847.733,640.487c-0.364,0.104-0.78,0.211-1.263,0.308c-0.479,0.097-0.971,0.181-1.494,0.249
			c-0.52,0.074-1.051,0.132-1.59,0.176c-0.539,0.046-1.056,0.065-1.549,0.065c-1.188,0-2.248-0.167-3.18-0.506
			c-0.932-0.335-1.717-0.816-2.354-1.448c-0.643-0.628-1.133-1.389-1.467-2.28c-0.334-0.893-0.51-1.899-0.51-3.017
			c0-1.131,0.146-2.153,0.438-3.066c0.295-0.914,0.715-1.688,1.267-2.326c0.548-0.638,1.218-1.125,2.013-1.459
			c0.795-0.338,1.705-0.505,2.727-0.505c0.568,0,1.073,0.051,1.521,0.16c0.452,0.105,0.9,0.256,1.357,0.449v-4.174l4.082-0.64
			L847.733,640.487L847.733,640.487L847.733,640.487L847.733,640.487z M838.494,633.844c0,1.221,0.285,2.203,0.851,2.947
			c0.565,0.74,1.405,1.114,2.52,1.114c0.37,0,0.707-0.016,1.018-0.036c0.312-0.031,0.566-0.062,0.771-0.095v-7.199
			c-0.261-0.163-0.587-0.294-1.003-0.401c-0.411-0.104-0.827-0.159-1.247-0.159C839.46,630.017,838.494,631.294,838.494,633.844"/>
		<path fill="#FCB61A" d="M855.709,638.093c0.751,0,1.275-0.069,1.592-0.209c0.311-0.143,0.468-0.419,0.468-0.825
			c0-0.314-0.204-0.6-0.604-0.836c-0.407-0.24-1.014-0.514-1.836-0.812c-0.645-0.229-1.222-0.468-1.744-0.718
			c-0.519-0.249-0.961-0.545-1.325-0.89c-0.368-0.345-0.646-0.757-0.852-1.231c-0.2-0.481-0.303-1.059-0.303-1.729
			c0-1.311,0.506-2.349,1.51-3.108c1.005-0.762,2.386-1.146,4.136-1.146c0.879,0,1.717,0.075,2.521,0.227
			c0.804,0.15,1.449,0.316,1.923,0.492l-0.716,3.083c-0.475-0.161-0.991-0.303-1.549-0.425c-0.555-0.123-1.18-0.188-1.873-0.188
			c-1.279,0-1.922,0.346-1.922,1.038c0,0.158,0.028,0.3,0.082,0.425c0.051,0.123,0.164,0.244,0.33,0.356
			c0.165,0.111,0.389,0.237,0.674,0.373c0.282,0.136,0.643,0.28,1.081,0.44c0.896,0.321,1.633,0.636,2.218,0.95
			c0.583,0.312,1.043,0.647,1.386,1.01c0.339,0.363,0.575,0.767,0.708,1.207c0.14,0.442,0.205,0.956,0.205,1.539
			c0,1.377-0.538,2.419-1.602,3.125c-1.067,0.709-2.577,1.062-4.537,1.062c-1.279,0-2.346-0.104-3.188-0.313
			c-0.855-0.216-1.444-0.392-1.771-0.533l0.686-3.217c0.692,0.264,1.404,0.475,2.14,0.629
			C854.271,638.02,854.997,638.093,855.709,638.093"/>
	</g>
</g>
<path id="path3091_1_" sodipodi:nodetypes="cccc" fill="none" stroke="#FFFFFF" stroke-width="4" d="M889.678,478.73l-118.88-0.164
	V187.018h118.328"/>
<path id="path3093_1_" sodipodi:nodetypes="cccc" fill="none" stroke="#FFFFFF" stroke-width="4" d="M889.881,263.67h-41.062
	l1.367,134.139h39.491"/>
<path id="path3097_1_" sodipodi:nodetypes="cc" fill="none" stroke="#FFFFFF" stroke-width="4" d="M770.534,383.468
	c-38.326-22.241-36.794-81.534,0.163-103.435"/>
<path id="path3126_1_" sodipodi:cx="513.85535" sodipodi:cy="253.57072" sodipodi:type="arc" sodipodi:ry="1.3453845" sodipodi:rx="1.0599999" fill="#FFFFFF" stroke="#FFFFFF" stroke-width="4" stroke-miterlimit="10" d="
	M816.854,331.125c0.006,2.209-1.781,4.004-3.99,4.009s-4.004-1.782-4.01-3.991c0-0.006,0-0.012,0-0.018
	c-0.006-2.209,1.781-4.004,3.99-4.008c2.21-0.006,4.004,1.781,4.01,3.991C816.854,331.114,816.854,331.119,816.854,331.125z"/>
</svg>
